<mxfile host="app.diagrams.net" agent="Mozilla/5.0 (Windows NT 10.0; Win64; x64; rv:138.0) Gecko/20100101 Firefox/138.0" version="27.0.5">
  <diagram name="Page-1" id="1M6nM3-2hViNubnSYbZ4">
    <mxGraphModel dx="2149" dy="1996" grid="0" gridSize="10" guides="1" tooltips="1" connect="1" arrows="1" fold="1" page="0" pageScale="1" pageWidth="850" pageHeight="1100" math="0" shadow="0">
      <root>
        <mxCell id="0" />
        <mxCell id="1" parent="0" />
        <mxCell id="-836DLk3jCzovJCyV22u-3" value="" style="endArrow=classic;html=1;rounded=0;fontSize=12;startSize=8;endSize=8;curved=1;exitX=1;exitY=0.5;exitDx=0;exitDy=0;" parent="1" edge="1">
          <mxGeometry width="50" height="50" relative="1" as="geometry">
            <mxPoint x="-112" y="195.0300000000001" as="sourcePoint" />
            <mxPoint x="-7" y="195" as="targetPoint" />
          </mxGeometry>
        </mxCell>
        <mxCell id="vwwunB69SC0WPqoDZCOm-5" value="" style="group" vertex="1" connectable="0" parent="1">
          <mxGeometry x="151" y="122" width="126" height="124.58" as="geometry" />
        </mxCell>
        <mxCell id="-836DLk3jCzovJCyV22u-14" value="&lt;div&gt;Cloud Function&lt;/div&gt;" style="text;html=1;align=center;verticalAlign=middle;resizable=0;points=[];autosize=1;strokeColor=none;fillColor=none;fontSize=16;" parent="vwwunB69SC0WPqoDZCOm-5" vertex="1">
          <mxGeometry y="93.58" width="126" height="31" as="geometry" />
        </mxCell>
        <mxCell id="vwwunB69SC0WPqoDZCOm-2" value="" style="shape=image;verticalLabelPosition=bottom;labelBackgroundColor=default;verticalAlign=top;aspect=fixed;imageAspect=0;image=data:image/png,iVBORw0KGgoAAAANSUhEUgAAAgAAAAIACAYAAAD0eNT6AAAqI0lEQVR42u3dd7icVZ048Ngp9t7d9mz/CYINFb1zJwRQsaOuro8Ve8OCbZUrmZmA7rrPujYsa2/XzEwARbFhRTIzAVGxYaGDIC3zzk3mnZD3987NJd5AEpKbW2bm+/k8z/fZf35lec8533Pm+z33ZNkyAAAAAAAAAAAAAAAAAAAAAAAAAAAAAAAAAAAAAAAAAAAAAAAAAAAAAAAAAAAAAAAAAAAAAAAAAAAAAAAAAAAAAAAAAAAAAAAAAAAAAAAAAAAAAAAAAAAAAAAAAAAAAAAAAAAAAAAAAAAAAAAAAAAARl611X1OrdV7y2nnZPv6GsNvIstu2R/PE1vZbXwNAHaotjbdr9ZMszyuqDd7xzgIjMCYNtMP5NGonrXhQb4GANs1/YuxmV41cwiYPgjUmr03n9LK9vF1hlOt0XvczFheU2t2n+yLALBd1WavPusAsCUa6Z+qrd4bJ8/I9vaFhsuWQ133slnj+T4tAQBuot5IX3eTA8Bf4vJaq/cGB4HhMtMG2DqO1WZ6ppYAANvIDwD77+QA8JeDQDM9+pOnZ3v5YkMwps3e2HbG8Oo1jY1H+DoATNvOPYCdRPey/Nfk6x0EhmFMt2kD3BCb8wPff55+enZrXwmA7d8D2PlB4NJaK33tqedlt/P1BlO9lX5wh+PXSH8y2drwQF8JILibuQew04NAtZW+xkFgAMd0+22A2XFVbd2mJ/pSAIHt4j2AnUTvknozfbWDwODYSRtgm5ZA/n/mPVoCAEHt3j2AnUSrd3H+P181eW52W1916e20DbDtXwn8eE1j6gG+GEBA+a/4NXt8APhLReCifPN5hYPA0tqFNsDs+HO1tekJvhpAMP3b/fN3ANgaF9Za6csdBJbG5GR2q11oA2zTEqg2uydoCQAEsrqZPmQBDgDTUW+mF+QHjJd5kW7xVRvph+YwZj+qnjl1f18PIICZewBXL9QhYCbOzw8DL3UQWDzVVq8wx7G6st7cdLgvCBDA/N4D2NllwfSPtUZ6lIPAwtvSBph+yXEuY7W51uiu0hIAGHELdA9gZ7fP/1Bvpi92EFjgcZ1bG2D2w0E/mDxj6n6+JMCIWsh7ADcTv8/jRX5pLow9aANk2/xT0Y3eYb4mwAhapHsAO4vf5b82X+ggML/2sA0wO66vNbvl/v97virAiFm0ewA3cxCoN9IXOAjMnz1uA2wb3z/prM59fVWAEbLY9wBu5o7AebVW+ny/OOdhXOenDTD7XsCf6q3eCl8WYERUW+kBg3IAmPVXA7/NDwPPcxCYu3lsA9y4JVAyLgAjYADuAewsflNvdP/dhjM3+ff78AKNy/e0BABGQK3ZO2lADwA3xK9rje5z+4cVo7Ub47quN75gY9JI/5TPm0N8ZYAhlif0owf8AHBD/Kra6j7HQWDXTLcBpjfqBRuP6+uN7nEqNABDaiDvAew8fllrdp/tIHDzFrANMDu+W21l9/G1AYbMgN8D2NllwXOrje6zHAR2bEHbANvG5fVGr+iLAwyZIbgHsLP4Rb3RfWaWZbcwkttahDbA7NhUbXYntAQAhsgQ3QPYWfy81uoe6SBwk7H9yKKOQyP9zmQju7cvDzAEhvAewM7iZ/kv0Wc4CGzRL80v/hh0L+u3H3x9gAE3cw/gmhE6BPTjnFqj+7ToY7vIbYBtWgL1Zu9YdzQABly12Tt5xA4AWw8C1bXdp0Ye20VvA2wb3z7pzOxeVhjAgKq1em8Y0QPADX818NN6q/uUiGO7NG2AbVoCl/b/fQKrDGAA1delB470AeAvcfbkudntI43tzL8NcMUSf/dN+SHgnVoCAANmRO8BbP9fHgzYEljiNsDs+GbtnOyeVhzAABnhewA3jk9EG9ulbwPMjt4ltUbvcVYcwIAY+XsAs16ui1aKHpA2wDYtgfwg8A4tAYABEOgeQLamlT4i2vhWm+mJgzcW3dMmz8ruYfUBLKFQ9wAa3ZXRxrfa7C0fzL/Q6F1cbfQeawUCLKEw9wBa6U+jje0AtgFmRy+fe2/3giPAEqm2em8M0gbYPNna8MBw4zuQbYBtWgJf1xIAWAKr16YPjXIPoNpIXxltfAe2DXCjlsCadb2DrUaARTRTJr42xiGge2q08T399OzW+X/7lUMwPr38IPBWLQGARVRrdE8JUgXYcNo52b7hxreVfnSYDmmntLK7W5UAiyDQPYAs4r8PUGv2DhmucepdVG32Hm1lAiywSPcAIr4KOERtgG1aAvVm7xgtAYAFFOwewGURN5XhagPMqtg0u1+rrc3uZpUCLJBA9wDyTSV9eLjxHbo2wDZx4ZpG71FWKcACiHQPIOKrgEPaBpgdaX6IebOWAMA8C3YP4OyIY1xrpB8b+rFrdE+ZPCO7qxULME9i3QNIN69pTD0g2hgPeRtgdgvnguq69JFWLcA8qTW7X43z54DpK6KN7wi0AbZpCfTbVlYtwDyoNXpvinMRsPu1mGM8Am2A2fc5mr2Tv/qz7C5WL8AeqDbShwW6BxDyVcB6q7diBMfy/DWt9BFWMMAcBbsH0H8T4MnRxnimDfDnERzPNI+jrWKAOYp0D6DaTD8ecoxHrA2wbfTW1M/O7mwlA+ymSPcAor4KOKJtgL9EK/1jv51lNQPshmD3AEK+CjjCbYBt/0qgmb7eigbYRdHuAdQb3eMijnO//RGjzdOrawkA7KJQ7wE007MijvHqdb1DA931+EP/pUsrG+Bm9N9cD9QGCPkqYJA2wOzo1lrpa61ugJ3o98Uj3QPIN4aXRxznKG2AG/2VQHWyld3JKgfYjpl7ANfFaQPEfBUwUhvgRvH7+rr0QCsdYDv6m2KgDWHqlFa2T7QxPrGV3SZYG2B2bKw301db6QA3EuweQBbxVcAt45x+IugB4IaWwFdOPTO7oxUPMCPcPYBG+rGI4xy4DTA7fldtpQdY9QDL4t0DqDW7l0Z8FXCmDXCVQ0C6sdpIX2nlAywLdw8gi/p8rDbANi2BSS0BILxw9wBa3XeHHOdG7zAb/6yDYDM9b3UzfYgMAIQV7R5A1FcBtQG2GxvqrfQVsgAQ0sxrcesDJf3N1TOn7h9xrLUBdngo/NJJP8ruIBsA4dSa3VNjtQFivgqoDbDTOfHbeiPdXzYAQqk3e8cEew/gqxHHWRvg5lsC1Wb6MhkBCGNNK31EsEQf8lXAvvy//f9s9DcbX9ASAEIIeA8gqzY3PiniWNebmw63we9S/Ka2Nt1PdgBGXsB7AB+NOM7aALtXKao10qNkB2CkxbsH0Lsk4quAfdoAu/lXAo3085PnZreXJYCRFPAeQLZ6bfrQiGOtDTCn+PXqdd0HyxTAyIl5D6A7EXGsZ9oAV9vUd78lUG2lL5EtgJFTa3a/Hiyhr4s61vlG9kkb+pzjs1oCwEiptXpvCZbIN0+eMXW/iGO9urnp8TbyPYpf5Qfmf5U1gJFQXZc+Mloij/rwS/4L9rbaAHscnTxeJHMAQy/iPYBao3tK1PHWBpi3+PRp52T7yiDAUAt4DyDsq4DaAPMYrfTc1Y3uv8ggwNAKeA8gW9PYeETEsdYGmP+WQL2RvkAWAYZSxHsAUV8FnB5vbYAFaCuln4paVQKGWMh7AIFfBdQGWLD4xZozu/8sowBDJeA9gKy+Lj0w4lhrAyzoX5gktVb6fBkFGBoR7wFEfRVwerwb6ads2Asa/6clAAyFkPcAmmkr7Hi3Nj3BJr3g8fPauu4/yS7AQJt5K74dLEGHfRVwpg1wjU16waNdbabPk2GAgVZvdL8R7h5AM31p1PHWBljUuwEfnzwj21uWAQZSrdV7a7zE3Ds56nhrAyx6/Gx1q/uPMg0wcGprewcFTMqdqL/MtAGWpiVQa3SfK9sAAyXoPYCstm7TE6OOuTbAEkUj/ZiWADBQIt4DqDbTE6OOd//wY0NesjjnpObGf5B1gIEQ8R5A/t98cdRXAbUBljzWV1vd58g8wJILeg8g7KuA02PeTD9tI176KtQnT8/2koGAJRP1HkC92Ts26phrAwxKJSr9aW3txr+XhYAlU2t2TwuYgMO+CqgNMFgtgXz9PVsWApZEvdF7W8DEu/mkszr3jTrm2gADFx/WEgAW3ZpG71FB/zTrqKhjrg0wkHH2Ses2/p2MBCya/j2A6X/WNNxFrLivAp56Xna7/Btca9MduLiu3ug+U1YCFk3QewBhXwXsqzfTz9hwB/Rw2kg/1D+kyUzAggt6DyD0q4BrGhuPsNkObuQHtLPqrY1/KzsBCyrsPYBm+pGoY64NMBwtgVqre6QMBSyYqPcAIr8K2KcNMDTxAS0BYMEEvQeQVVvpAVHHXBtgqKJVbW78G5kKmHfVZu/tIRNro/euqGOuDTB0cW292X26bAXMq/wA8Oigl62akcddG2Ao5+z7+y86ylrAvAh7D6CZbq62svtEHfdqc+OTbKrDeXA9ee2Gv5a5gHmRJ5ZvxmwDxH0VUBtgqOOa6truU2UuYI+FvQfQ7J0Uedzzb/BZm+lQH2D/p1/Bk8GAOYt6D6AW/FVAbYCRiEb9Jxv+ShYD5iTwPYCs2tr0hKjjPtMGuM4mOvwtgVqz+2SZDJiTsPcAmumHg4+7NsDoXBD8by0BYLcFvgdwUexx1wYYsVhbPWvDg2Q0YJcFvgeQrW6mD4k67toAIxlX9w92shqwS/qlw/6luJi3qeO+CthXa6Wfs2mOZPyXlgCwS+rN9FtRb1JHHvf+BTKb5agebtOfTLY2PFB2A3aq1uy9I2iiDP0q4CdPz/bSBhjpuKr/D0DJcMAO1Vq9x0RNktVW+pLYY68NMOqH3Fqr+97TT89uLdMBN9H/h0bC3gNo9tZEHnttgDBxxprG1ANkO+Amot4D6D+E1C+FRx13bYBQ8efID2ABOxD4HkC2urnp8ZHHvt5IP29zDNQSaHbfoyUAbBX5HkAt+KuA9Vb3KTbGcJWvH2sJANNi3wNIL4w89jNtgPU2xngtgejVL2BG4PcAsnoj3T/02GsDRG4JHK8lAMHVW73/CFsSbfXeGXvstQGCxw+rZ07dXxaEoNas6x0cOAGujTz22gAijytrjd5hMiEEFPwewPWTjezekcdfG0D010G11a1oCUBAeQL4dth7AM30xZHHXhtAbI1G+oPJM6buJyNCqE0g7j2A6K8CagOIG8UVq9f1DpUVIYjI9wCivwrYl3+HL9j4xOyWQK3ZLU9OZreSHWHEBb8HkNWbmw6PPP7Vtd2n2vTEduJ7J53Vua8MCSMu8j2AaiP9UOSxnzwj21sbQOzgXsCf6q3eChkSRljsewCxXwXs0wYQO2sJVBvdlVoCMKKCvwcQ/lVAbQCxC3F6tZXdR7aEEXPqednt8gU+FfYA0Or9R+Tx1wYQuxiXV5u95TImjJhaI/1O4MQW+lXA6fFvpl+0wYldaQnUWt13awnACOm/jR85qUV/FbDW6D7N5iZ2I74bfc3AyKg2eo8NntBeFHn8Z9oAbRub2PXoXlZv9IqyJwy56PcAqs1ePfoc0AYQc4hN1WZ3YiLLbimLwjBvAIHvAfRfBewfgmKPvzaAmHN8W0sAhljwewDhXwXUBhB72hLIc0hBJoUhFP0eQL2VfjD6HNAGEHvaEqg1eu/SEoAhE/49gGZ6QfQ5UG92n24TE/Owlr510pnZvWRVGCLB3wPIamvT/SKPvzaAmMeWwKX1Zm9MVoUh0S/fxW4DxH4VsC//9fYlm5eYr5ZAf01pCcAQyA8Aj4ucsKrN9Mzoc0AbQCxAfLN2TnZPGRYGWPR7AHlcH713eUor20cbQMx/9C7p/8CQZWGA5Yv1u8GTVehXAfu0AcQCRS8/CLxDSwAGVPR7ALVWrxZ9DmgDiAW9a9PofmPyrOwesi0MmOj3APrl7+ivAmoDiEU4aF+8Zl3vYBkXBoh7AHk0eodFnwe1VvplG5VY6JZAvdF7W5Zlt5B5YVCSv3sAH4g+B6rN7jNsUGJxovv1U1rZ3WVeGADh7wE00/Ojz4F+G6D/jyTZnMTiRO+iWqv3GNkXlph7AGm2el33weHngTaAWOSWQH4IeIuWACyhT56e7ZUvxg3Bf5G8I/o80AYQSxH1ZvdrtbXZ3WRiWCL5Qjw9dCJqpD+JPge0AcQSxoVrGr1HycSwBOrN3rHBE9D1ni/VBhBL2xLI89AxWgKwyPr/klf4BNRIXxh9HtRa3SNtRGJpo/vVyTOyu8rKsEjcA5i+B1CNPg+0AcRg3AtIL6it7R0kM8MiCX8PwKuAM/OgN2kTEgMQaa3Re5PMDIvAPYD+nwP2Do0+D7QBxCBFtdk7WUsAFph7ANMR/lXA087J9tUGEIPWEqiuSx8pS8MCcQ9gOs43E7QBxIC2BFq9N1idsGCJP/1e9ESzptX9f+HngTaAGNjonfTVn2V3ka1hnlWb3Qk9x97bo8+Dfhsg/xYdm40Y1EpdvZk+XMaGeeQewHScYSZMtwG+Yi6IgW4JNNOjrVSYJ+4BTIdXAXP1RveZNhkxBC2BNfWzszvL3jAP3ANIs3ojfUH0eaANIIYmWukfq430YbI37CH3AKZ/VYR/FbBPG0AMUXTzg/vrrFrYA+4BTMd6rwJqA4hhrAb0apOt7E4yOcyBewAzbYBWb0X0uaANIIYxqs30D6vXpg+VzWEO3AOYTiL/ayZoA4jhbQlUW+lrrGDYTe4BbLlYZCbkc6HRfZbNRAzvQb63WksAdifpt3oFycOrgH3aAGIE4vf1demBMjvsgskzsr3zRbMx/D2ARu9tZkO/ItRbbRMRQx79fPYqqxl2Qb5Yvi9peBWwTxtAjE70vnLqmdkdrWrYiVqr+27JIt00eVZ2j+hzYfLc7PbaAGKE4nfVVnqALA874B7ATLTS55sN2gBi9FoC1Ub6SisbtsM9gC3R3/jMBm0AMbIH/C9rCcB2uAcwHesnz81uG30uzLQBpswHMXqH/PS8eiPdX8aHWdwD2BJeBZyZD81e1XwQIxobaq305VY5zHAPYOYA0Ezfbzb0DwDdZ5sPYsTjiyf9KLuD1U547gFs7RN6FXCZNoAIE7+prU33s+IJr9ZIfyAh9KP7r2aDNoCI0xKoN9OXWvGEVm90j5MMvAp4A20AESy+0K98WfnETPjreuOSwPRN4R+bDdoAImT8evW67oOtfuIlfPcAbgivAs6otXo180EEi6laIz3K6idewncPYEt4FXBavdn9N/NBBM0Bn9MSIFbCdw9gJnpfMRu0AUT4+JV/Kpww3APYGtd5FXBmTmgDiNjRqTfTF8sEjDz3ALapAhxiRmgDCNGP/BDwmdPOyfaVERhp7gHMRCP9H7Nh2bL+a2naAEJMxy+9E8JIqza6Ky306T8H/IPZsIU2gBB/aQnkPw5eKCswkuqNXtEi3xKrG91/MSO0AYTYTnxaS4CRc0or2yef3F0LPI9W761mxNY2wAZzQojZ+SE9148ERk4+uX9ogU/Hj8yGLarNXt18EOImrcKk3khfIEMwMgrlzg/Hy0kmOg4AM8bL7br5IMRNIsnDAYDRcMREtk8+obsWdh6VRAsg9+gTrrxD/j02mBNCbBPnFo5rawEwOgrlpGhhbwmLe4vxUvJv5oMQf4liOfn0ive6BMjIJfv2Sgs83/zLiT8DvGFOlNs1c0KI6eiMVxJ/BsioJvvkBxZ5fsKvJB4CWra1/D9lTgiR/HKs3PYQEKPpoPdle+eTfKOFPl3i8xTwMuV/IaajlHxGyZ/RTvYr2+MW+3Rcd+SEfwxoek4o/4vgJf9ipeMfA2L0Fcvt4yz4fnT8c8C5sYkrbq/8LwLHr5Yfl/jngIlhXP//hv7/880G5X8RNwqV5HP9A7AsQAj6/1tj08GV9j3MCOV/ETKmxiudo6x+YiV7/f8byv8/NhuU/0XI+HWxnDzY6icc/f+Z0l85eZvZMD0fnm0+iDBRSb6g5E9Y+v9bwt/53jAfOlXzQQSIDYVy56VWPGHp/2+NP5oNyv8iTPymcHyynxVPaMVyuyAZTPf/3282KP+LEPHF/iuXVjvhFUrtd0sIeaxKVpgNyv9itEv+46XOy61y2Jrwk+9LDMl6r/8p/4uRrvCdN1ZO9pfxYYb+/5YoljurzYZly4ql9rNsFGIE48uHT1x1RyscZid8/f8tBwCv/83Mh85q80GMUGwslNqvtLJhO/T/p8Prf8u2lv875oMYkZL/7/I4QJaHHdD/70f7DDNB+V+M1Ob/FSV/2An9/y3h9b8tlP/FKJT8i+X2q6xmuNmEr//fD//k57JlK96b7av8L4a8kvf7wqrOgTI77IJ8wUxIGl7/61P+F8Mc/erV8uOvvpOVDLsoXzjfC588Kp3/NROmH//5io1EDGF08x8yr7GCYTeMTWR7jfdfxYqeQLz+p/wvhjIK5eQPY6XOQ2Vz2E3LV7bHJJFk/eHvz24XfS4Uyu1nmgtiyPr9NSV/mCP9/350qmaC8r8YrpJ/sZy8zqqFPUr6+v95vCD6PFD+F0MUfyyu6jxM9oY9oP8/HdevOLZ9z+hzQflfDEMUy+01YxPX3Fn2hj2k/z/dQ/T63zLlfzHwkRbKydFWKsxb0tf/L1Y6b48+D5T/xYDH+eOlqYfL2DCP9P+9/jc9D0rtI20yYkArdCc9ZtW1d5GtYR7p/2/5ZWEm5AeASmfSRiMGreRfLCVvsDphAej/9x8Q6Xwg+jyYKf8nNhwxQHHBWGnqkbI0LJDxcudYB4Dk0PDzQPlfDFacfOjEdXeVoWEBFSrJ6bETTaft9T/lfzE4Jf/xSvImmRkWmP7/9AEg/Ot/R0xk+yj/i0Eo+RcrUwfJzLAI9P/zqCQvjD4PlP/FUkexnHxVyR8WM/Hr/3v9b3oeJF+2CYklil6xkhyzLMtuISPDIore/y+W2z+JPgeU/8VSRaGcXDheWv8omRgWmf7/dP//HdHnQbHSfobNSCx6lJKvFSvr7yYTwxIoVNqP03dMHhx9Hij/i8Uu+efxFiV/WELFSuddwRPR+dHngPK/WOS4aHlp/WNkX1hi+WL8buz+o9f/lP/Foq23UvL1sYn1d5d5YYn1H77JF+VU6PL/quSw6PNA+V8sRsm/UE7epuQPA0L/3+t/W8r/nbYNSixgXFysrD9YxoUBov/frkWfA4VS++k2KLFgFbZy8o2DK+17yLYwYPT/Oy+KPgcKleRLNiqxECX//p/XTkxkt5RpYcDo/yfX579O7hV5Dij/iwWKS/rtRVkWBpT+f3Jm+Dmg/C/mP77pWW0YcOH7/5XOf0SfA8r/Yh5jU39NKfnDEBivJN8J3f8/Ptkv8vgf9L5sb+V/MR9RLCeX9v9FUVkVhoD+f3JB9Dmg/C/m5SBdSb4V/S4NDJXxUvuxsX+xdD4Yfg6Uky/awMSelPz7bUQlfxgyhXLnnbGTV+fwyOOv/C/2KErJZcVyuyCTwhAK3v9Por/+V6i0n2YjE3OMb4+9J7m3LApDSP+/XY8+B5T/xVxK/vnamVDyh2FO/sH7/9Ff/1P+F3Mp+RfKSVH2hCEXvP9/ffTypfK/2M34rpI/jIjg/f+14cdf+V/s4mG5UGq/+8jJ7FayJoyA8P3/4K//bSn/J+ttbuJm4vLlK5PlMiaMkP6/yR05sY2Vk/0jj/94aeqpNjex0zsyleT0g8ud+8iWMGobQP4LOO7lv+RC4598wSYndlTyHy+1Vyr5w6huAOXk23ETXOdDkcde+V/suDWW/Gl8VbJChoQRdeREdtt8sXcCHwBCv/6n/C92EN875ITOfWVIGGHB+//J2ES2V+TxV/4XNy75F0rtspI/hNgA4vb/i+X2mshj3z/8KP+LWXFFoZwcKitCEJH7/8VK58WRxz7/73+KTU/MxA/GS1P3kxEhiOD9//Cv/+Xf4PM2PiX/YjmpjE1kt5YRIZDg/f/Qr/8p/4s8riyuSg6TCSGg2H//33ln5LFX/o8d+fz/4dgJU/eXBSGoQiX5VtQEGP71P+X/qLE5j+OV/CGwyP3/6K//Kf+HjT8XKp3Hy34Q3PLS+sfETYTtD0cee+X/iNH58YrS1ANkPmBZnhDeEbb/GfxXkPJ/rJJ/sZy8R8kf2Cpw/z/0638z5f/rbIxBSv7lzhNkO2CryP3/6K//FUqdJ9sYQ7S5zlDyB24idv+/85LIY1+oJJ+zOY52yX+8lLxXyR/YrsD9/80Hlzv3iTruyv8jH1eNlzpHyHDADgXu/zdCj7vy/yi3tn6y/PgND5TdgB068MTsNmH7/5XOuyKPvfL/aEY+rv/VX9eyG7BThcr6R0dNlMtXdR4SddwPf392O+X/kYurC5XOk2Q1YJfkv4LfHjRZXhR53PsbhQ1zpGLteGnDg2Q0YJflieObMRNm7Nf/8m/wWZvmiEQl+W8lf2C3zPT/k5B90sAPoij/j0xc07/IKZMBuy1w/79z0PuyveOOu/L/CERjbNWGv5LFgDmJ2/9vnxR53JX/hzuKleR/lPyBPRK2/1/pHBV1zGfK/9faSIez5D9emnqqzAXskcD9/9Cv/yn/D+mv/nLSXLFyw1/LXMAei9r/7yfSyOM+Xko+Y0Mdtui8v/8PdslawLyI2v+P/Pqf8v/QxbWFUvvpshUwr/JfgqcF/TV1QNwx7xxhUx2aaC1ftfFvZCpgXgXu/1+8LMtuEXXclf+HIwrlzgf61RqZCph346X1j4qZWNsfiTrmyv9DEdeNl9pHylDAgimUk7cF7f8/MeqYK/8PeJSSs8ZXXvu3shOwoIL2/0O//qf8P9D3Uj6k5A8suMD9/5Ojjrny/+CW/Avl9jNlJWBRRO3/R379r9/6sNkOWDuqnJw9tuq6v5ORgEUTtP+/+ZATOveNOub5ZvNpm+4gRfvDYxPZXrIRsKiC9v9bUce7/4LceP8NeRvvIMT6Yrn9bFkIWHRb+v+ddsBLVsdGHXPl/4G55f/TYmX938tCwJIoVqYOiph8C6s6B4Ydc+X/Aej3t09U8geW1HgleWvABBz29T/l/6Uv+RfKyXNkHmDJ5b8GvxHx11fY8Vb+X8o4p7By/T/IOsCSi9r/j/z6X6GUfMpGvCS3/D8W+dEpYMAE7f+Hff1P+X9JLpu2i6XkubINMFCC9v/Dvv5XKHeeYENexKgkPxurrP9HmQYYOBH7//km+NKo4638v4jzrJR8XMkfGEhB+/+bx0tT94s43sr/i1fyz3/5P0+GAQbWWGnqkQETdNjX/5T/FyV+vnxl+59kF2Cg5cnqLQFvYk9EHW/l/wWOUvJ/R0xk+8gswMDLN4Svh+vLBn39b6b8f7WNekEiKVaS58sowFAYm8hunSeu9cES9SVRX/8rVDqPt1EvyC3/XxQr7X+WUYChEbL/X2p/NOp45//9n7Rhz/st/08p+QNDJ2T/v9Q5IuJYK//Pe3TyeIEsAgylgP3/qai/1pT/5zXOLRzX/hcZBBhKIfv/peSUqOOt/D8/0f8nlFe8N9tXBgGGVsT+f7HSeVnEsVb+n5+Sf6HceZHMAQy9gP3/sK//Kf/vcfxqrNz+V1kDGAkB+//roo618v8exWfHJq64vYwBjISYf/8f8/W/Lf/Wg/L/XC6Mjpc7L5EtgJFSqEw9IlpCHyt1HhpxrPNN7HCb+W7Hr4vl5MEyBTByipXkmGAJPezrf/236W3ouxWfV/IHRlae5E6N9ed/MV//myn/X2VT38WSf6VzlOwAjKyI/f9CpfOkiGOt/L/L8ZvC8cl+sgMw0gL2/8O+/qf8vwtRSb7w6BOuvIPMAIy8aP3/Yjn5asRxVv6/2dgQ9WEoIKh4/f/OyyOOc3FVcphNfofx27Fysr9sAIQRsP+/eeyEqftHHOtiOfmEjX5790GSLyn5A+GMl6YeHuvXf3JWxHFW/t9+yX+80n6FLACEVCgnbw71a6/UfnfEcVb+v3F0zlu+qvMQGQAIK/9F/LVQFwBXdR4WcZyV/2ff8u9MHj5x1R2tfiCsIyezW+UJ8bpAt/8vjfj6n/L/1thYKLVfaeUD4YXr/5fbH4s4zoVycqjNv/O7PA6w6gGWRez/d54ccZyV/ztfUfIHmCVY/z/k638z5f8/Ry35j5far7bSAWaJ1v/vH3YijnPc8n/794VVnQOtdIAbiff3/zFf/yuUko8HLPlXlx9/9Z2scoDtCNb/37yiNPWAaGM888pjpPJ/t1Bqv9bqBtiJ/j+IE6j8H/L1v0jl//y/9Q9jpc5DrWyAnZjp/18b5+//28dFHOc45f92fWzimjtb2QA3o/8aXqz+/9TDo41xkPJ/Ol5KXm9FA+yi8UrypkDl/8sivv43vipZMeJj+8eozzoDzFmk/n+/DB5xjPuvHo5wS2eNkj/AborW/4/4+t8Il//TQjk52ioGmINg/f8NK96b7RttjEe0/H9+oTL1CCsYYI6C9f9Dvv43guX/kx+z6tq7WL0AeyDU3/9X2q+INr4z5f8rR6Xkn8/XN1q1AHsoWP8/5Ot/+YZ5yIiM3wVjpalHWrUA86D/Ulqcx3+SsyOO8UiU/0vJKYdOXHdXKxZgnvTLqXH6/+2V0cZ3BMr//Vv+b474bgPAgur/sopzAIj3+t8wl//zjf/C8dL6R1mlAPMsVP8/6ut/pfZHh/WvNYqV9XezSgEWQLD+/yfCje9wlv97xUpyjJI/wAKK1P8vVjpPCTi+w1b+v6hQWf9oKxNggQXq/8d8/W+4yv+njk2sv7tVCbDAgv39/6nRxneIyv+98UryViV/gEUSqf9fKLVfGW18l69Mlg/B2FxcrKw/2GoEWESB+v+blx+/4YHxxrd94mAfypKvH1xp38NKBFhkeRI+Ocif//002tjOtHeuGNxb/p23K/kDLIGJieyWeSK+xut/o2mAy/8X5+PxWCsQYIkUVnUODNP/D/jvxQ9k+b+UnKbkD7DEiqXkDUEOAJf3qx2RxnYAy/+bxsudd0QbB4CBFKX/H/H1v0I5KQ7QGFxSqLQfZ8UBDIBY/f+pp0Yb30K5/ZEB+f7fXHFs+55WHMCAiNL/z3/9nz02ccXtI43tgJT/NxXKnXcq+QMMmJHv/5eSn0Z8979vqcv/+aHr0mK5XbDKAAbQCPf/z4lY8p9ticv/384PAPeywgAG0Ij2/88pVNpPiz620+X/SvKnJbrlf6ySP8AAyxP1ASOz8VeSnxUr7Wd4UW6LJSn/l5LLxle2x319gAGXbxJHj8Dm//PxUvtIG/+Nx3aRy/+V5Dtj70nu7csDDIHxcvukIf7F/4t8k3umjf+mFrn8vymfRxP9/z99eYAhMNP/v3oIN/9zi6X2s/SYd6xfhl+slxX7rQZfHGCIDGH//5fFcvvZNv5dGdv2hxdhPL57cLlzH18bYMgMUf//V/n/rs+x8e+aRSj/X58fxI5T8gcYUkPQ//91sZQ818a/m+O6kOX//GBRLCeH+MoAQ2rA+/+/yTeZf/cLc24WsPz/vUNO6NzXFwYYYgPa//9t/gvzeTb+uZt5+//y+S7554eKknEBGAHjpeT1g7Pxd84rVpLn22D2XP/d/fku+Y+vSlb4sgAjIt8o1gzAxv+7/H++YGwiu7URmR/5N/3QPI7R95X8AUbI0vf/842/krzQxj+/5rH8f32h1C6ryACMmOWrOg9Zmo2//ftCufMiG//CmKfy/xXFVclhvibACFrs/n+hnPyhWOm8+MATs9v4+gs4rnte/v/BeGnqfr4kwIhaxP7/H8crnaNs/AtvD8v/m/ND4SqVGYARtkj9//ML5c5LbfyLZw/K/1eOlzuH+4IAI26B+/8XFCudl9n4F9/cyv+dH42dMHV/Xw8ggIXo/xfKyYXjpc7Lj5zIbusLL77p8n8puWx3Sv6FUnKCkj9AIPPc/79ovNJ+hY1/aS1f2R7bjTH7c6HceYKvBhDITP//qnnY+C/ODxKvsvEPhmK588FdLPn/eEVp6gG+GEAwY+Vk/z3c+C8ZL7Vfffj7s9v5moNh+lB38+X/zcVy8h4lf4Cg8k3gdXPZ+PP/e5eOl9uvsfEPnl0o/19VrHSe6EsBBJZv4vXd3fgLpfZrbfyDa2fl/2K5/ZPlx294oK8EENhu9f/7JeVS8vqxiWwvX27Ax3T75f/Nefynkj8Au9r/v7xQTo628Q+HHZT/rx4vdY7wdQCYdjP9/8uLpeQNB70v29uXGh6FcucDNxrHM8dLGx7kywCw1Xb7/5XkT/nB4I02/uGznfL/+7zACMA2ttP/v6JQTt58xES2j68znAqV9uNmxvKaQqnzZF8EgJsoHJ/st/Xfeq8kx6x4b7avrzLkY7ql/N9Q8gdgh/Jf+8/JN4u32PhHw0xF5y1K/gAAAAAAAAAAAAAAAAAAAAAAAAAAAAAAAAAAAAAAAAAAAAAAAAAAAAAAAAAAAAAAAAAAAAAAAAAAAAAAAAAAAAAAAAAAAAAAAAAAAAAAAAAAAAAAAAAAAAAAAAAAAAAAAAAAAAAAAAAAAAAAAAAAAADD6/8DCkW1Cf+kPX0AAAAASUVORK5CYII=;" vertex="1" parent="vwwunB69SC0WPqoDZCOm-5">
          <mxGeometry x="16.210000000000036" width="93.58" height="93.58" as="geometry" />
        </mxCell>
        <mxCell id="vwwunB69SC0WPqoDZCOm-8" value="" style="group" vertex="1" connectable="0" parent="1">
          <mxGeometry y="136" width="93" height="125.99999999999997" as="geometry" />
        </mxCell>
        <mxCell id="-836DLk3jCzovJCyV22u-2" value="&lt;div&gt;GitHub&lt;/div&gt;" style="text;html=1;align=center;verticalAlign=middle;resizable=0;points=[];autosize=1;strokeColor=none;fillColor=none;fontSize=16;" parent="vwwunB69SC0WPqoDZCOm-8" vertex="1">
          <mxGeometry x="12.5" y="94.99999999999997" width="68" height="31" as="geometry" />
        </mxCell>
        <mxCell id="vwwunB69SC0WPqoDZCOm-7" value="" style="dashed=0;outlineConnect=0;html=1;align=center;labelPosition=center;verticalLabelPosition=bottom;verticalAlign=top;shape=mxgraph.weblogos.github" vertex="1" parent="vwwunB69SC0WPqoDZCOm-8">
          <mxGeometry width="93" height="95" as="geometry" />
        </mxCell>
        <mxCell id="vwwunB69SC0WPqoDZCOm-9" value="" style="group" vertex="1" connectable="0" parent="1">
          <mxGeometry x="-187" y="136" width="150" height="120.15" as="geometry" />
        </mxCell>
        <mxCell id="b9XZJ52PNFGqDciwaemp-2" value="&lt;div&gt;Developers / Platform Team&lt;/div&gt;" style="text;strokeColor=none;fillColor=none;html=1;align=center;verticalAlign=middle;whiteSpace=wrap;rounded=0;fontSize=16;" parent="vwwunB69SC0WPqoDZCOm-9" vertex="1">
          <mxGeometry x="-67" y="90.15" width="205" height="30" as="geometry" />
        </mxCell>
        <mxCell id="vwwunB69SC0WPqoDZCOm-1" value="" style="image;sketch=0;aspect=fixed;html=1;points=[];align=center;fontSize=12;image=img/lib/mscae/Person.svg;" vertex="1" parent="vwwunB69SC0WPqoDZCOm-9">
          <mxGeometry width="65.12" height="88" as="geometry" />
        </mxCell>
        <mxCell id="vwwunB69SC0WPqoDZCOm-10" value="" style="group" vertex="1" connectable="0" parent="1">
          <mxGeometry x="346" y="127" width="101" height="122" as="geometry" />
        </mxCell>
        <mxCell id="-836DLk3jCzovJCyV22u-19" value="&lt;div&gt;Monitoring&lt;/div&gt;" style="text;html=1;align=center;verticalAlign=middle;resizable=0;points=[];autosize=1;strokeColor=none;fillColor=none;fontSize=16;" parent="vwwunB69SC0WPqoDZCOm-10" vertex="1">
          <mxGeometry x="4" y="91" width="93" height="31" as="geometry" />
        </mxCell>
        <mxCell id="-836DLk3jCzovJCyV22u-52" value="" style="shape=image;verticalLabelPosition=bottom;labelBackgroundColor=default;verticalAlign=top;aspect=fixed;imageAspect=0;image=data:image/png,iVBORw0KGgoAAAANSUhEUgAAAgAAAAIACAMAAADDpiTIAAABklBMVEUAAABmmfJnnfdmnPdmnfdmnPZmnfZmnfZlnvZnnfVlnPZjnPhnnvVmnfZmnfZmnfZmnfWAgP9mnfdmnfZlnfdgn+9mnfZmnfVmnPVmnfZln/RmnfZmnfZkm/ZmnPVmnfdnnfZnnPZmnPdmnfZmnfZqn/RmnfZmnPZon/dmnfZlnfZqlf9mnfZmn/lmnfZonPNlnvRlnfZmnvZkm/ZnnfVom/dmnfZlnfdlnvVAivRDhfNChfRChfRAgO9AgOpBhfVAgPJmnfZAgP9ChPRChfVmnfdChfRBhvRChvRnnvZDhfRnnvZDhvRBhPNChfRBhPVChfVEhPJChfVAhvJChfRChPRAh/dBhfRgn/9ChfRnnPdChfRAifZBhfRChfVDhfRBhvRDhvVChPRChfRAgP9DhfRChfREg/NAhfRChfNAhPZChfNChvVAh/FChfRAhPVDhPRDhPNChPRChfRChPNAhfNBhPRChfRChfVChfRChfNDhfRBhfVSkPVUkfVUkfZDhfNnnvZmnfZhmvdhmvZhmvZ7PmrPAAAAhnRSTlMAFGObt8/f17+fbyRPw/v/awQ825cQj7tLpzDL5xxnf7N3X+9zGPejIIerDOMo8yxHU5M4NEDrW4MYx9f/EAzDFK8Es6vTo7uPV2/HX1P7T3888yjv5yBHCOtDdxxDe8+/Z4efCMv3QDCbOJeTJOM0W1eL34Mst9Pbp69zS+X/+mvM9dL/9h3wwbwAAAmJSURBVHgB7NkDlmxBEEDBHLa7emzb2v/avm1MznmIWMMtZtAmAAAAAAAAAAAAAAAAAAAAAAAAAAAAAAAAAAAAAAAAAAAAAAAAAAAAAAAAAAAAAAAAAAAAAAAAwNT0zOzcPJXR6fb6g3gpw9G4UD1zk4WIfIvdQkUtDSPdxOqvsuWFSLUwUyqN7kpkWi0Vx9pC5JkulcdypBmMS/WxHlk2CjXQWYgcm4VamI4cM4Va2Ioc24V62IkMi4Wa2G33G5CZyLBXqIl9d0C3wOfXK9TE/MsHgAAQAAJAAAgAASAABIAAEAACQAAIAAEgAASAABAAAkAACAABIAAEgAAQAAJAAAgAASAABIAAEAACQAAIAAEgAASAABAAAkAAmUarB4eT1S0BtNLR8Um8t7N6KoDWOZuKz85HAmiZvfjKwpkAWqUf31oVQItcxPfOBNAaq/EDC5cCaInLiLQCBFB9lwuRVoAAqm90FT+zMBJA421dxc9djQTQcJ2TiKwCBFB91ycRWQUIoPq2b+J3VjoCaKzbu/i9k44AGup2MSKrAAFU3/g+IqsAAVTf+CH+1GBbAM2zG3/uZlsATdOPSCtAANW3GpFWgACq7zH+1tOtAJo8APy9xVsBNMX+QkT1CxBA5gA4qwABvGbvLpTbWIIoDHeYlZJzw8zMKOtEsCFF1xEawjEzM737ZQjI07uzs7MpTX+vML+rutwz2p/ftuuk6W5CAmjmBbD9AiQA+04w5x97ARLAjkN7H9x+eGrXI/sL4PgLkAD2HaF/JB8fML8APEYh7ZYAopS4QF9JPklYXgCnWlNWC5AAmAO6c8toXnu5808jbbcACYA5oJsHLC6An6YB8AVckAAicrbRnbzD1haAmSz+lM4R45AEEIk8NZK8t9+MC/7OH8hm4ihAAth+kBrbnLCxAPaeATEWIAEkHtBGHhpYxv/Cnf9zIEAB9yQAm1d0rryIfAH8El975ZGa6YejEkCeVK7n94eylTv/Ar71nC9AAjA8AKg9iXQBXADiLEACuPSAOK9v6W8XuPMvAhoFnJEArN7RfnAjqgVwEY0UyNbDUQngKPlx8Ve9BeAVUmsDYi1AAjhwnXxJ7opiAfymhFgLkAAu+d/RXkgE3i/dJ7VyCRuqsAUclwDsPtK6c8vwArhag0Ix+oejEsBRCuLmDv0FIH/+9guQAF7wA4D+epA7/3o7EGsBEsCt2xRQ8pCxBXC9A5zSG7aAGxJACOeIp7sePEtqnR2ARgEGH45KALtIR8sJEwvgVBqwX4AEwA8AvCvbArTFnD+r1MUXIAHYGAD49WCABXCmFX7VqmwBtyQAswMA7/R+pZ1J/gKYwQJabkkA5m/p8OtB7QWw9wqIuQAJYNtbCuXYjY0XgAf5C2CBvKubLkACuLWHePx6UGsB/BxBdbAFvE9IAIG8Vv+JdumvB09waRWACAq4m5AAjA0AFZQ+aK4H+QVwATo6PporQAJgBoBPJQAvMzrrQX4B+Bl60iljBUgA5/eQQqoDf/rSqbEeTLTwF8AiK+CcBODTXlLwuv+dvT8FXQ/yC+Ae6DP1dFgCOEQqvfhXqRh0PfiYvwAWQmvGRAESwPEkKXThK339gdaDu8OePyNroAAJ4PwVUvj4Dl8b+BhgPXia1KqDQNQFPJEAwg0AWXyrY8j3evAQfwEstKxHjEMSgJkB4F+lHp/rwcukNlyDAc/DFSAB7EuSQhkNjHjEO30tyV8Ai70ACeDRSVLobEcjrSnSx5+/8QIuSwAbukMK3gAa6xilkFJpGDNGuk+HJYCrmv+lL7VZPX9GQbMACYAbABTGPdKX+QLEXoAEwAwAEzWodKf0zz8Lw3rZAvZJAAG/1dj/BWqTU6SnPwvjisGfDksAp0llDJzBaWIwF8BiLUACOJwkhRnwMOvZP39DBUgAJy7yAwDrVY6CGkNEZoJ8e14CSLw3MqbPDVMwBegy8HB0hwTgcwDog1+1GQpiHoi/AAmAGwDaEMC8R74VEaVS2WcBEsAN5QCwUEMQi09tn7/+k6E9JyQA9qpmZgnBLC+QL28ACwXwT4clgLNBBwBGrUwM5gKY1QIkgK3mL+pWiPWpBAtqdb4A1wO4sYkUhgeh41nGwgUwM4/G7t9yOwBmAFiGnnSdVEZrsIQvoOWWywEwA8AKdNW6rFwA4nVM8AU4HEA+spc6pc+2zp+RTvEFuBoA8y2IqUGE8TxDDaUmocfyw1EHAkg8IIWncwhnaUL/Apj9AlwMYDeprCKs9k+NPwFq25cMX4CLAeQj/09taY2/AGZDNngBDgTADAAlmPAyQ1+bSCMWfAG7XQuA+RZEbg5mzK3Tf7yed0ATFNAcAZwilUUYM9CWoz99/LCM+Dz3+AKcCuAoqXyAUXPd3a3vEC++gAsOBcB8DKpaQvPhCzjkTgDMADCJZtRHnEPOBMANAM2pwBfgSACXSaUCOFvAvdgDiN+nEhwuQKQ60MSKJPhf65cCHFaBfVKADAAWtZFgfgmyOfGPxoSXBaQAh/UCUoDDuuCIwSoJtwYA/tGY8AYAKcBhBbikNkziG2U0L/7RmOhshxQgA4AU4KpxuAfLKfqbmIGT0lLA/78EKQW4q/8LXJXOkKA+uCsrBdAaXJbNkdu8MbhtuU4uG1qC6wYrv7N3F9d1REEARDsDp2NJLYaNmJmZmWW283YEZs/ozfn3xlD76ozWtHPwvJtkzhyOt0X5rrMhGCkyAASAABAAAkAACAABIAAEgAAQAAJAAAgAASAABIAAEAACQAAIAAEgAASAABAAAkAACAABIAAEgAAQAJdRhY1sCPajCo/ZEMyZ+rS2HVefltYeldjZy0ZgLarxlI3AaVTjPJuAp6jKQFK+sVNvn5Z2EtV5GUsKt9EXFVpLytbRE5XaHEsK1t4WFVtdTIp1uBOV67zZS4rUvR+1aFvrTkqzePgS9WlbHVmbaJB37//Qh4lG+Th6Hj/Bpzd/6HMgAATAXxAAAkAACAABIAAEgAAQAAJAAAgAASAABIAAEAACQAAIAAEgAASAABAAAkAACAABIAAEgAAQAAJAAHTO/a4vX//Qt7nf1Rmvgr6JhyzCw01f1I6+9izG7k7UjYksyFbUjYcsyFnUjSxKT7Q0AcxFbRAAAmAsS9IVNWM9C3IfdWM0CzISteMqi3Ecr4D9w/XrAtwPzccrAAAAAAAAAAAAAAAAAAAAAAAAAAAAAAAAAAAAAAAAAAAAAAAAAAAAAAAAAAAAAAAAAAAAAAAAAL5vZINRAAA04HzFdNRgMAAAAABJRU5ErkJggg==;" parent="vwwunB69SC0WPqoDZCOm-10" vertex="1">
          <mxGeometry width="101" height="101" as="geometry" />
        </mxCell>
        <mxCell id="vwwunB69SC0WPqoDZCOm-13" value="" style="group" vertex="1" connectable="0" parent="1">
          <mxGeometry x="327" y="-51.00000000000006" width="388" height="507.00000000000006" as="geometry" />
        </mxCell>
        <mxCell id="-836DLk3jCzovJCyV22u-35" value="Cloud Scheduler" style="text;html=1;align=center;verticalAlign=middle;resizable=0;points=[];autosize=1;strokeColor=none;fillColor=none;fontSize=16;" parent="vwwunB69SC0WPqoDZCOm-13" vertex="1">
          <mxGeometry y="94.55000000000001" width="136" height="31" as="geometry" />
        </mxCell>
        <mxCell id="vwwunB69SC0WPqoDZCOm-4" value="" style="group" vertex="1" connectable="0" parent="vwwunB69SC0WPqoDZCOm-13">
          <mxGeometry x="210.26999999999998" y="2.560000000000059" width="159" height="120.42999999999998" as="geometry" />
        </mxCell>
        <mxCell id="-836DLk3jCzovJCyV22u-50" value="" style="shape=image;verticalLabelPosition=bottom;labelBackgroundColor=default;verticalAlign=top;aspect=fixed;imageAspect=0;image=data:image/png,iVBORw0KGgoAAAANSUhEUgAAAgAAAAIACAYAAAD0eNT6AAAh8klEQVR42u3dfaxkZ13AcRSMEQUREIkQ40uikBgURUAUxLbaNxtDC+W13d3SbYFSobxDsW/YZbtd+gp1ty8korzkemdmyxIEtFShbLtnZltRQQ0xMSRgQvuHlju795zZ9njO7J272+2+3Dv3zMx5zvP5JE9CoGzvnjlzft9z5py5T3gCAAAAAAAAAAAAAAAAAAAAAAAAAAAAAAAAAAAAAAAAAAAAAAAAAAAAAAAAAAAAAAAAAAAAAAAAAAAAAAAAAAAAAAAAAAAAAAAAAAAAAAAAAAAAAABQE3Nz+RNtBYjTFXn+o+WyJSAyO3v5k9tJdlc7GbzH1oD4hn+rm91erjzPf8QWgdiGfzfLh0sEQHTD/+D7P7tNBECMw39ptXqDd9s6ENnwFwEQ9/BfXr3Bu2wliGz4iwCIfPgfXJfYWhDZ8F8+CchuFQEQ5/A/8HFAN3unrQaRDX8RAHEP/9HqJNk7bD2IbPgfPAnYLgIgwuF/yJnAn9mKENfwFwEQ+/Bffjogu9jWhLiGvwiAyIf/0nq0083ebqtCXMP/kLVNBEB8w385Aop1ka0L0Q1/EQARD38RAHEP/9H6SxEA8Q3/5QhoJdnbbG2IbviLAIh4+B+8J6CXvdVWh+iG/4EbA5PsFhEA8Q3/gx8H9LK32PoQ1/AXARD38D/4cUA3u9CrAHEN/+UvC+tlnxABEN/wP/QRwQu8GhDX8BcBEPfwH61HRADEN/wPWR/3qkB8w385AoqfaaNXB6Ib/iIAIh7+yxHQ6mXne5UguuEvAiDi4X/oxwFv9mpBdMNfBEDEw//gxwHd7DyvGkQ3/Ee/QOhmrxrEN/wPvSdgg1cP4hr+IgDiHv4HPw5IsvVeRYhr+C8/ItjNbvIqQnzDXwRAxMNfBEDcw//gxwG9bJ1XFeIa/ssryW70qkJ8w3+09hfrXK8uRDb8RQBEPfyXI6A4sJ3jVYbIhr8IgKiH/3IEdJL0TV5tiGz4j1Yvu8GrDfENfxEAMQ9/EQBRD/+D9wQk6Ru9+hj+kQ3/g08HXO/Vx/CPb/gfvCegl77BXoDhH+X7XwRg+Mf65l/+OKCbvt7egOEf7brO3oDhH3EEtLvp6+wVGP4iAAz/+NaglaSvtXdg+Ee7PmbvwPAXAWD4iwAw/GOLgE6Snm1vwfCP9MbAJNtqb8HwjzgC2r30NfYaDH8RAIZ/jB8HdNNX23sw/CNdvfRaew+Gf8wfB3TTs+xFGP4iAAx/EQCGf1Qr3WJvwvCPd2XtJD3TXoXhLwLA8I8wAuZ76fPsXYSg3R2813u22tXqptfYszD8o/zO8MHl9i5CMfet/KeK/fYe710RgOFvGf6IAKuajwM227sw/A1/EAEiAAx/wx9EQDQrST9q78LwN/xBBIgAMPwNfxABIgAMf8MfRECznw7opZvsXRj+hj+IABEAhr/hDyIgoqcDrrZ3Yfgb/iACRAAY/oY/iICIIuAv7F0Y/oY/iAARAIa/4Q8iIJobA5P0I/YuDH/DH0SACADD3/AHERDNcSdJr7J3Yfgb/iACRAAY/oY/iIBoVi+90t6F4W/4gwgQAWD4G/4gAqK5MbCbXmHvwvA3/EEEiAAMf8vwBxHgOIXhb3lTgQhwvMLwt7yZQAQ0cCWDy+xdhr9l+IMIEAEY/pbhDyIgmhsDe4M/t3cZ/pbhDyJABGD4W4Y/iIBojmu9wYftXYa/ZfiDCBABGP6W4Q8iQARg+Bv+gAho+Bpcau8y/C3DH0SACMDwN/wBERDP7w4YfMjeZfgb/oAIEAEY/oY/IAKiOR4mgw/auwx/wx8QASIAw9/wB0RANKs3+IC9y/A3/AERIAIw/A1/QAREFAHvt3cZ/oY/IAJEAIa/4Q+IgIiOn++zdxn+hj8gAkQAhr/hD4iAiL42+L32rgmY3zM42c5l+AMioObfGPh79i4BYPgDIiCyVc4qe5YAMPwBESAAEACGPyACBAACwPAHRIAAQAAY/oAIEAAIAMMfEAECAAFg+AMiQAAIAMvwB0SAABAAluEPiAABIAAswx8QAQJAABj+ACJAAAgAwx9ABAgAAWD4A4gAASAADH8AESAABIDhDyACBIAAMPwBRIAAEACGPyACRIAAEACGPyACBIAAEACGPyACBAACwPAHRIAAQACsfl02v9i3FwB1j4Dtd6WZAEAAVLQ+8Ll9+WlbFh60FwB196fXLTz0ib9fFAAIgCqG/wlXLwgAIAjlserka/p5rBEgAARApcNfAAAhBUB5zIo1AgSAAKh0+AsAILQAiDUCBIAAqHT4CwAgxACIMQIEgACodPgLACDUAIgtAgSAAKh0+AsAIOQAiCkCBIAAqHT4CwAg9ACIJQIEgACodPgLAKAJARBDBAgAAVDp8BcAQFMCoOkRIAAEQKXDXwAATQqAJkeAABAAlQ5/AQA0LQCaGgECQABUOvwFANDEAGhiBAgAAVDp8BcAQFMDoGkRIAAEQKXDXwAATQ6AJkWAABAAlQ5/AQA0PQCaEgECQABUOvwFABBDADQhAgSAAKh0+AsAIJYACD0CBIAAqHT4CwAgpgAIOQIEgACodPgLACC2AAg1AgRA5AFQ9fAv1+lb+9+3FwB1d/qWhR9UeewLLQIEQMQBUPXwP7FYZ93Qzzfese/L9gKg7jbcuu+rZ2yt9gQopAgQAJEGQNXD/5RrFvJ12/bmF9xRrn1/Zy8A6q48VpXHrNd/vJ//0ab4IkAARBgAVQ7/0Vn/BbePhr8AAMIKgHKdd9vevMqrASFEgACILACqHP6nFmf95247dPALACDMABitKq8G1D0CBEBEAVDV8D/yWb8AAMIPgKqvBtQ5AgRAJAFQ1fA/ZctCvm770Qa/AADCD4DlqwGfqOZqQF0jQABEEABVDP/hWf+NxzrrFwBAswKgXG++bW/+J1ubGQECoOEBUMXwf+wd/gIAiCcARut1FdwbULcIEAAT8Kld6WuaMPzLs/5X31g+17+a4S8AgOYFQFVXA+oUAQJgAq77Svqh0Id/eYf/8T/rFwBAPAFw6L0BJ300/Ai47suDD9gLGhYAaxn+o8/6N94x7vAXAECzA2B0NWAtTwrUIQLKWWUvaFAArGX4n7plLWf9AgCIJwCquBow6wgQAA0KgHGH//if9QsAIO4AGH5vwK3jXw2YZQQIgIYEwLjD/9RV3+EvAAABcMSrAR8f72rArCJAADQgAMYZ/uVZ/2sqPesXAEDcAbCWqwGziAABEHgAjDP813aHvwAABMBKvjdgtVcDph0BAiDgAFj18N9U9Wf9AgAQAFVeDZhmBAiAQANgtcO/vMN//fZJD34BAAiAI14N2FS/CBAAAQbAqob/pkl+1i8AAAGwoqsBq/wWwWlEgAAILABWM/zLz/rXb5vm4BcAgACo6mrApCNAAAQUACse/uVZ/03TPusXAIAAWPHVgGtnHwECIJAAWOnwP23LpO/wFwCAAJjm1YBJRYAACCAAVjL8h8/1z/SsXwAAAmCcJwVWcjVgEhEgAGoeACsZ/tO9w18AAAJgFlcDqo4AAVDjADje8B+d9ddn8AsAQACs6WrA1ulFgACoaQAcb/ifNjzrr+PwFwCAAFjT1YCb9+YnfbQ/8QgQADUMgGMN//Ks/+yb6jr4BQAgAKZxNaCKCBAANQuAYw3/8qx/w/a6D38BAAiA6u4NOPrVgLVGgACoUQAcbfifuKmun/ULAEAATOd7A6qPAAFQkwA42vCv92f9AgAQALO+GjBuBAiAGgTAkYZ/edZ/9s2hDX4BAAiAWVwNGCcCBMCMA+BIwz/Ms34BAAiAaa3XHuFJgdVGgACYYQAcPvzLL4E4+6aQB78AAATALK8GrCYCBMCMAuDw4X9a8SJuuLUJw18AAAJg6vcGbOqvOgIEwAwC4NDh35yzfgEACIBZfm/A6VtXFwECYMoBcOjwP31LP5Dn+gUAIABCuxpwvAgQAFMMgNHwP7GRZ/0CABAAtfkWwWuPHwECYEoBMBr+zfqsXwAAAqDWTwps6h81AgTAFAKgHP7lWf9rb2764BcAgACo09qwdDWgjIBbDosAATDhACiH//Csf3ssw18AAAKgjlcDTt3y2AgQABMMgEvnFhv+Wb8AAARASFcD/vT6fr7tHxYFwCQD4Kr24nBjxzf8BQAgAOq83nhLP7/1q6kAmISLP7X3zDgHvwAABEAIa2Ox/ny+f569oGIbP7lwsgAAEAC1joBiVtkLBIAAAASAAEAACABAAAgABIAAAASAAEAACABAAAgABIAAAASAAEAACABAAAgAASAAAASAABAAAgBAAAgAASAAAASAABAAAgBAAAgAASAAAASAABAAAgBAAAgAASAAAASAABAAAgBAAAgAASAAAASAABAAAgBAAAgAASAAAASAABAAAgAQAAIAASAAAAEgABAAAmAltvfyH+v0Fn+l0x28crTmu9kL27vzZ3hHjK91397n7kgGLxtt0/I/l/+dLTO+uSR/dqebvXi0TVvJ4BWde/f9ogAQAAgAAbACO3v5k9vd9HXtJLut3c2+XaxHi5UfZT3USdIvFQfb98330ud5hxxZnuc/0uoN/rDYrpuLbZYUq3+Mbdo/8M+km8v/T/n/tQWPbEcve0m7l15Z7KtfK7bZ/x1jm6btXvbPxT93Y6e7/9QyagWAAEAACIAl7T3p84sD5R2tbrZwjAPp8VY53M69++78Sd4txRnprvzpRRxdXmyT765hm363/DPKP8sWHQVqdkmx/nMN2/QHxfrYnff3f14ACAAEQLQBMLdr73OKg+FnivXIGg6oh6//6nTTs2J9n3zxO/mPt5PBZcV2eLjCbfpw+WeWf3aUMTWXP7HYBhcV68EKt+lip5td/8X78qcKAAGAAIgqAIqz/QsrHlKHrfQL7W/mz4rtsnSxXb8zqW1a/tnlvyOmbXpnd/HXir97b4L76ffnu/tPEwACAAHQ+ACY25X/xNJZfz75NfheeYNbDO+PVi+7uPg7Z1PYrln574phm3aS9Ozi7/vDKWzTR1u9dFNT7rkQAAJAAAiAxx9QH8ifVhzsvj6d4b+89u5IFs9o6vuiHBrtXnrtlLdpXv47m3yTYCfJ3lHxR1PHXcW/89NNuElQAAgAASAAHmN4A1WS3Tv1QbV01tpOBqc08X0xk+F/SAQ0cvh3s7fPbJt2s89ekec/KgAEAAKgEQEwPEtN0p0zPKiWn18vlN8h0MDL/vlMt2vDPg5o7U5fNe0z/yNcCdgqAAQAAqARAdBJBh+c9aAa3cTWlLuuh8+hl8+Yz367pk25MbDVXfzl4u/zvzXYpo+WISIABAACIOgAmN+TvqA4oA3qEADDlWS3hf5eKB/Hm+Td/mOFVeCPCB64SjX8Up+8Juuhnb38mQJAACAAggyA4UG1m91To4NquR5p7cleGvJ7Yek5/7xWq/iZgt6mvWxd3bZpEVa3CwABgAAIMgDKu+9rN6gOXAW4K9T3QfmtfJP9/oTxvywo1G8MLO+8L37+/67hNt3f3r34qwJAAAgAARBcABQHsF21DIDy7CrQqwBLX+9by21a/mxBbtMkW1/XbVqsTwoAASAABEBQAdDupr9e44NqkJdXy8fD1vjd/pNe3w3xEbZiX/hGjbdp/8578qcIAAEgAARASAGwuc4BUP4Gt9BuXDvwW/1qvU3z8mcM6uy/t/grx/mtk7NfvWydABAAAkAAhBMA5a9ANaxii6ryu+03BxVVSfa2+m/T7LMCQAAIAAEQxqDanT9j1l+msrIvXEmvCisAst0BDKvdYW3TwVwAUfU/AkAACAABEMZBNRn8QQCDKm91B51QtunSI5X9ALZrP6TfEVD8vP8Rwr4a0m+2FAACQABEHQDZxiAOqt3s26Fs07nevl8IZJvm5c8awja9++78SVP6DYprXjv2DF4uAASAABAAIVxWvTSQYfVgKNt0fnf2olACoPxZg4iq+/OfDWWbtpP0TAEgAASAAAggAEK4WW24FkPZpiE8ARDazZVL3/0fRgAE9CSAABAAAkAACAABIAAEgABAAPgIwEcAPgLwEYCPAAQAAsBNgG4CXN2wchNg5dwEKAAEgAAQAJUHgMcAq+YxwEldrfIYoAAQAAJAAFR3UPVFQJMaVr4IqPqPq3wRkAAQAAJAAFR6YPVVwBMYVr4KuGq+ClgACAABIADiG1Z+GZCo8suABIAAEAACYAIB4NcBV8yvA55QWPl1wAJAAAgAAVD5Z9a7ahsAe7KXhvg+6HQHl9f2noriZwtymybZ+hoHwCdD254CQAAIAAHwhB3J4hn1fKY6uyvU98Hcrvzpxd/h4Rpu14fLny3Ebbq9l/9Y8fP/dw236f727sVfFQACQAAIgOACYOnRtXtqdlB9JNSz/+UrK8ngsvpF1eCyoLdpL1vnYyoBIAAEgACo0Pye9AXFwWxQo7P/20J/L5Q3LxbD4Ts1GlTfCe2GyiPGapJ9rUYB8NDOXv5MASAAEADBBsCBz1gHH6zNoLovf2oT3g87etlLir9TWoPtmpY/SxO26dLvBvjfGmzTR1u701eFuh0FgAAQAALgsLOrdOeMh//CfDd7YZPeE61edvHsH/vLLm7UNi0G76y/xKqTZFtD3oYCQAAIAAHwGDt7+ZPbSXbvjA6qWTsZnNLE90W7l147u+fT02ubuE073ezts/zSnxAfpRQAAkAACIBjH1gfyJ9WHOC+PuUD6t7yaYSmvi+GV1dmEQHFvzOk7/xf/cdW2TumfSWg+Hd+unwiIfRtJwAEgAAQAEc0tyv/ieJg95npHFQH39uRDF4Ww/tj6eOAafxmu6xpl/2PHgHp2cXf94dT+cy/l25qSlAJAAEgAATAsQdWN7twss+zp18I6TeoVaG8GW+STweUf3ZTbvhbqTu7i79W/N17E9xPvz/f3X9ak7aZABAAAkAArOBqwN7nLF0NqPJS6391uulZsb5Pysfxlr4noMq4erj8M0N/1G/s/XQuf2KxDS4q1oMVbtPFTje7vilPpQgAASAABMBY2nvS5xcHxDvKO/XXcEBNinXu3XfnT/JuOfCNgUtfG7yW3x3w3fLPCPUb/qo2vJG1m11SrP9cwzb9QbE+duf9/Z9v6nYSAAJAAAiAMQ+w6evKL+spDpLfPs5vaXuok6RfKgbU++Z76fO8Q46s/Fz5wG8RHP52xjKS+sf6xTMH/pl0c/n/afJNflV83NLupVcufXnQ/x3rexKGvxo7yW7sdPef2oSb/ASAABAAAmDiyoNl+etaiyH/ytEqn+Vv786f4R0xvtZ9e59b3hw52qblfy7/O1tmDVdckvzZnW724tE2bSWDV3Tu3feLMW4LASAABIAAAASAAEAACABAAAgABIAAAASAAEAACABAAAgABIAAAASAAEAACABAAAgAASAAAASAABAAAgBAAAgAASAAAASAABAAAgBAAAgAASAAAASAABAAAgBAAAgAASAAAASAABAAAgBAAAgAASAAAASAABAAAgBAAAgAASAAAASAABAAAgAQAAIAASAAAAEgABAAAgAQAAKAFbr4U3vPFAAAAqDWAfBX/VPtBRW77ivph65qL+YbbhUAAAKgXuv82/v5RzqL+Yf/dmGDvWACAdDuZvmlc4v52Tf1BQCAAKjFOueWfv7huX15OaMuay2cYy+YUACU6wOf25efdm0/37C9LwAABMDMzvpfdf1C/v7PHhj+5br8bxfOtRdMMABGEXDipoX8tTf3BQCAAJjqetNf9vM/3vzY4S8AphQAowg44eqFA1cDbu0LAAABMJWz/nL2HD78y3Xl/MI6e8EUAuDQCCivBjT73gABAAiAWZ/1n7x5afh/7vHDXwBMOQAOjYBynb6lqfcGCABAAMzurL+/PGeONvzLdUVrYb29YIoBcHgEnNTIqwECABAAs7jDf3TWf7zhLwBmFACHR0Dz7g0QAIAAmNVZ/9E+839cAHQEwEwC4EgR0JyrAQIAEACzOOtf6fAXADMOgCNFwPBqwJaFfH3Q9wYIAEAATPusfzXDf3gT4A7fBDjTADhaBAyfFAj2ewMEACAAJnbWv/Rc/+Fz432rGP4CoCYBcLQICPdqgAAABMC0zvrHGf7DjwDa/fPsBTUIgGNFQHk14DVB3RsgAAABMI2z/nGHvwCoWQAcKwJGVwPC+N4AAQAIgEp+Ze/te4961l+u935mvOFfrqsEQL0C4HgRcOLVITwpIAAAATDJs/61Dn8BUNMAOF4E1P/eAAEACIBJnfVXMfwFQI0DYCURUF4NqOe9AQIAEADjnvWffIyz/uFn/hUM/3J9pNN/s72gpgGwkggo16nDqwECACDUAFjJWX+Vw18ABBAAK42A0dWAjQIAIKgAWMlZf9XDf/gRwI7++faCmgfASiNgdG/Auu0CAKDuAVCe9Z+5grP+qj7zFwCBBsBqIuCETbO+GiAAAAFw3LP+a2Y3/IcfAdzZ32gvCCQAVhUB5b0B1yzk67cJAIC6BMBqzvonOfwFQIABsNoIGF4NuHHaVwMEACAADl/nruKsf9LDXwAEGgCrjoCpPykgAAAB8Jiz/hv6qzpmv2fCw18ABBwA40RAeTXg1VO5GiAAAAEwzln/tIb/8CbAz/cvsBcEGgBjRcDSvQGTfVJAAABxB8BKn+uf1fAXAA0IgHEjYPi9ARO7GiAAgHgDYHjWv3mM4f/p6Q3/4UcAn+9faC8IPADGjYDlqwHbBAAgAGZ11j+L4S8AGhQAa4mA8mpAtfcGCAAgrgAY96x/VsO/XJsEQHMCYC0RMHpSoJp7AwQAEEcAjHOHfx2GvwBoYACsNQLKqwFnrflqgAAAmh8A52xb/R3+dRn+5fqLnf232AsaFgBrjYC1PykgAIDmBsD5azzrr8PwFwAT8plk/xmzfmGriIDx7w0QAEAzA2CtZ/3levffzH74l+vGv0tfZS+o2Pyewcl1eHGriIBynbLqJwUEANCsAKjirL9Ow3+4dme/YS9ocABUFQGjewMuuF0AAHEFwDjf5lf74V+sTpL9pr2g4QFQVQQMrwas6EkBAQCEHwBVnfWX612frtfwFwARBUCVETC8GnDDsa4GCAAg7ABYy3P9IQz/cs13sxfaCyIJgCojYPSkwLnbBADQnACo8qy/zsNfAEQYAFVHwJGvBggAILwAKE9oqjrrr/vwL1erl/2WvSCyAKg6Ah7/pIAAAMIJgI0Vn/WHMPwFQMQBMIkIGF0N2HjHvi/bC4AQAqA86z/lmviGvwCIPAAmEQHlOn1r//v2AqDuzrph739Uffx719+EMfyHTwHsyX7bXhBxAEwiAk7bsvCgvQCou/JYFevwFwACYCIRIACA2AIgtOE/fApgd/Yie4EAqDQCBAAQUwBcEuDwFwACYCIRIACAWAIg1OE/vAkwyX7HXiAAKo0AAQDEEAAhD38BIAAmEgECAGh6AIQ+/Ic3AXazF9sLBEClESAAgCYHwCV/Hf7wFwACYCIRIACApgZAU4Z/uXb0spfYCwRApREgAIAmBkCThr8AEAATiQABADQtAJrwmf/jbgLck73UXiAAKo0AAQA0KQCaOPwFgACYSAQIAKApAdDU4T9cuwe/ay8QAJVGgAAAmhAAjR7+AkAATCICBAAQegA0fviXNwEmg5fZCwRApREgAICQA+Cdf9384S8ABMBEIkAAAKEGQDn8W5Ecv1vdwe/ZCwRApREgAIAQAyCm4S8ABMBEIkAAAKEFQGzDf7h6g9+3FwiASiNAAAAhBUCUw18ACIBJRIAAAEIJgGiHf3kT4J7By+0FAqDSddn8Yt9eANTd+z+774etiI/VAkAATOjXTA4utycAdVUcpy5qRX6cFgACQAQA0Q3/Yj0a+zG6lQxeYW8QACIAMPwFAAJABADN00qytxn+h6xk8Af2CgEgAgDDXwAgAEQAYPhHcEx+pb1DAIgAoJE6veythr8AEAAiADD8LQEgAEQAYPhH/BRAb/CH9hQBIAKAxmj3srcY/gJAAIgAwPC3jrT2DE6wxwgAEQAY/gIAASACAMO/8cfdZHCiPUcAiAAgWK1udqHhLwAEgAgADH9rJTcBdgcn2YMEgAgADH8BgAAQAYDh3/w1+CN7kgAQAYDhLwAQACIAqKdON7vA8K/o+Nob/LE9SgCIACCU4f+I46IAEAAiADD8LQFQHzt7+ZPbSXaXHUwEAGtXHE83Gv6Vrwc/v3vfL9m7RIAIAAz/iIb//J70BfYuESACAMPf8EcEiADA8Df8EQEiAJiyVi873/A3/EWAJQLA8LcMfxFgiQAw/C3DXwRYIgAaodPN3mz4G/4iwBIBYPhbhr8IsEQAGP6W4S8CLBEAjVC8X88z/A1/EWCnFQFg+FuGvwiwRAAY/pbhLwIsEQDNGP5JtsHwN/wRASIADH/L8EcEiAAw/C3DXwSIABEAjdBJsvWGv+GPCBABYPhbhj8iQASA4W8Z/ogAEQCGv2X4IwJEABj+luEvAkSACADD3/BHBFgiAOqk3cvWGf6GPyJABEB8w3+/44nhjwgQAWD4W4Y/IkAEQCOHfzc71/A3/BEBIgAMf8vwRwSIADD8LcMfESACwPC3DH9EgAiA8LS62TmGv+GPCBABYPhbhj8iQASA4W8Z/ogAEQCN0EnSNxn+hj8iQASA4W8Z/ogAEQCGv2X4IwJEADRCO0nfaPgb/ogASwRg+FuGPyLAEgEY/pbhjwgQASKARmj10jcY/oY/IsASARj+luGPCLBEAIa/ZfgjAiwRgOFvGf6IAOsx6yJ7FyFo70mfb/gb/ogAb9xq1r/PJfmz7VkEEwHdwXu9bw1/RIA38NrWt++8L/85exQiwPAHEWD4gwgw/EEENHL1sm8Z/ogAwx9EQFzr39rfzJ9lz0EEGP4gAgx/EAGGP4iAhq5/NfwRAYY/iIDIhv/c/fnP2kMQAYY/iIB41r8Y/ogAwx9EQFzrm4Y/IsDwBxEQ2fAvtsEz7QmIAMMfREA8z/n/s+EP0UaA4Q+RRsADhj9EGwGGP0QaAQ+0d+fP8IpDlBFg+EOMEdDpZvcb/hBtBBj+EGMElMN/blf+dK8wRBkBhj9EGgF7DH+INgIMf4g0AnqGP0QbAYY/RBoBvS/8S/4zXkmIMgIMf4gxAjrdrGv4Q7QRYPhDjBFg+EPUEWD4Q6QRkHQeyJ/mFYMoI8Dwh0gjwPCHeCPA8IdII2D3XC//aa8QRBkBhj/EGAGtbnaf4Q/RRoDhDzFGgOEPUUeA4Q9RRkCS3fvF+/KneiUgyggw/CHKCDD8IeYIMPwh0gjYZfhDtBFg+EOMEdDqZt+48578KbY4RBkBhj/EGAGGP0QdAYY/RBoB98x9K/8pWxiijADDHyKNAMMf4o0Awx8ijYCvG/4QbQQY/hBlBCTZ1wx/iDYCDH+INAL+6cvfzH/SFoQoI8Dwh0gjwPCHeCPA8IdII+AfDX+INgIMf4g0Au42/CHaCDD8IdIIuLv832whiDICDH+INAK+avhDtBFg+EOUEVAswx+ijQDDH2KNAMMfoj4GPNNWAAAAAAAAAAAAAAAAAAAAAAAAAAAAAAAAAAAAAAAAAAAAAAAAAAAAAAAAAAAAAAAAAAAAAAAAAAAAAAAAAAAAAAAAAAAAAAAAAAAAAAAAAAAAAACAuvh/U3ZJtRtSpZ0AAAAASUVORK5CYII=;movable=1;resizable=1;rotatable=1;deletable=1;editable=1;locked=0;connectable=1;" parent="vwwunB69SC0WPqoDZCOm-4" vertex="1">
          <mxGeometry x="34.789999999999964" width="89.43" height="89.43" as="geometry" />
        </mxCell>
        <mxCell id="vwwunB69SC0WPqoDZCOm-3" value="&lt;div&gt;Cloud Run Function&lt;/div&gt;" style="text;html=1;align=center;verticalAlign=middle;resizable=1;points=[];autosize=1;strokeColor=none;fillColor=none;fontSize=16;movable=1;rotatable=1;deletable=1;editable=1;locked=0;connectable=1;" vertex="1" parent="vwwunB69SC0WPqoDZCOm-4">
          <mxGeometry y="89.42999999999998" width="159" height="31" as="geometry" />
        </mxCell>
        <mxCell id="-836DLk3jCzovJCyV22u-51" value="" style="shape=image;verticalLabelPosition=bottom;labelBackgroundColor=default;verticalAlign=top;aspect=fixed;imageAspect=0;image=data:image/png,iVBORw0KGgoAAAANSUhEUgAAAgAAAAIACAYAAAD0eNT6AABJEklEQVR42u2dCXhdVbmwKVBmAQGv4ow4oVecBRGuGUoBZVR6FbC0NjnnhFbA6r1Xr4rkt8lpy0xpgZC99yn8iJfYpAyKw4O3VgYhSaugaL3IrfSnUgSaNmevtXNO2u5/rZMUmtK0Sc6019rv+zzfU0WBZH/jmr5vr70AAAAAAAAAAAAAAAAAAAAAAAAAAAAAAAAAAAAAAAAAAAAAAAAAAAAAAAAAAAAAAAAAAAAAAAAAAAAAAAAAAAAAAAAAAAAAAAAAAAAAAAAAAAAAAAAAAAAAAAAAAAAAAAAAAAAAAAAAAAAAAAAAAAAAAAAAAAAAAAAAAAAAAAAAAAAAAAAAAAAAAAAAAAAAAAAAAAAAAAAAAAAAAAAAAAAAAAAAAAAAAAAAAACgknSsDt/Q1T14eldvfsby7sH/XN4zeKWWrp78rK6e3Dn3PR4cw1cCsND3nwr36+zNf0z5+sWdPfnUdt9f3pNv6OzNXbhsVe745jDcmy8FYAnaoVWir1eOn1GO/4yScAyyuatn8Mdd3bmL7n04fB1fEcBMdEHf2TP4HeXT3UpyY/B9oWSlWiBcdu9q8Wa+IICJ1f6j4YEqif97V+/gc2NM+qMHhN78DZ2PybfyVQHMQBf9ynd/XaTvb1XFw3K9a8AXBTDF+XvySeW8G4p0/p0l19Wbu1oXFnxhgGjS1ZP7567u/G9K7PthoRBgEQAQXfSW3fLu3M9L7fw7yV/vWTV4Cl8bIDp0dIT7dPUOfnuM2/wTlU36rhBfGyBidK7Kn6ic88UyJ//tku/szTfy1QGqzy+eCA/u6s7dXyHf13KLLjj48gARYHnPljM6e/J+BQPAsORa+foA1eP+3vCo4Qt+lfV9VXCof/dBaACgmiv/x3Pn6RV55ZP/sPQOfgstAFQefR9HFf6PVc33u/O/oggAiGvyH5Jt+rkg2gCoHPp5r76YV2XfpwgAiHHy3y79nT0D70IrAJVheXf+8oj4PkUAQIyT/3Z5mC5iAOXn3lUD7x5u2BNSBACQ/CMhnT356WgIoMyr/57cT6Po/xQBADFN/tt7BKxYEe6LpgDKw7LH858o3LuJagygCACIZfJnFwCg3HEgChf/KAIASP6jyINoDKD0dD0eHmlMHKAIAIhd8teyhSliAGUoALrzCYPiAEUAQMyS/9AxAG2CAcpQAFS03S9FAADJf0JO344GAUpcAPTknjc0HlAEAMQi+Q/JE2gRoIQxoTc82uB4QBEAEJPkryWLJgFKuPrvHvys4TGBIgAgBsm/IA88He6PRgFKFBt6Bs62IS5QBABYnvy18BKgfMz25Nsa23PHNbUHNSlPnp90ghlJN7gy6cqrUq7IqP/8QMKTK7So/71X/fW1I8STG9Wf4QgZ+msj/n/6793+z9H/zKF/tryq8O9S/07979Y/g/5Z9M+EZspZAOSn2xIbKAIALE7+WjpWh29As+OnuTncO7l04NiUE9Sn3KAh6YiWlCvvVIn3ESXrX5O4oyf6Z3yk8DMXfvagQf8u+nfSvxsanmCM6M1daFN8oAgAsDT5cwSwZ+Z2hAc2touPF5K8K69PeOKXahX+rAEJvjhRv2Phd1W/s/7d9TfQ3wKL2D1d3YOn2xYjKAKA5G9h8teTytDuqzS2B8ekPHGOWgl/TyW+ZUlXPGV9oh+3FL7JMv2N9LfS3wzLeZXhGQAhRQAAyT/q0h1XvU7rCPdTq9wTUq78hpIuldReILlPWF7Q31B/S/1N9beNq111PBUeortsUgQAkPyjLb352+Kiy5mZvsNTjjhLJav5KUf+Rv0pSdxlEzn8jefrb66/fayOAXryf7Q2ZlAEAMnfGmf+qq36a24O923MBKckXdGqEtFqknLVZbXWhdaJ1o3VBYAqrC2PGxQBQPI3XAaVEx9lk96abpdvSTjBrKQnO1Sy2UzSjew9gs1aR1pXWmf27QAMnmp57KAIAJK/4WLFOOCkG5yc8OQC9eeTJFZTJXhyWIcn22CTHR3hPipBvkARAEDyj6Qs78l90VQ9NbbLExOuvFYlj3UkT+tkndat1rHRsaQ7Ny8OcYQiAEj+5smfm0Ozmr3od+hJRy4c7n5HooyHrNU617o3bhfg0fAI5WebKQIASP5RW/1fYMT2fib3ft2lTiWCZ0iGsZdnCragbMKYuNKTa45LTKEIAJK/EZL7WZT1obvNpdzgYhXwHyLpIaPIQ9pGot6ZUHfZVD73B4oAAJJ/FGRz5+rgHVHURSLjf0QF9sVK+khwyBhF28pibTuRjTG9+Y/FKsZQBADJP5KypbN3y+ejpIPZS8JDUp5IqiDeTTJDipRubUvapqIWa7p68zOU/22jCAAg+VdF1Erk0qh8/6ZM8M6UJ29QQTtL4kJKLFltW9rGIlUE9Ax+N07xhiIASP6RccbB70fh26dc8YmUK+9WQXqQRIWUWQa1rWmbi04RkLuKIgCA5F/Blf/gFVX96GE4KeGKs1VAXklSQqokK7UNalusdgxa3p2/hiIAgORfARn8brW+98xMeEDSESkVfNeQgJCIyBptk9o2q7sTkL+OIgCA5F++t/7dg/9ZjW9dGLPrijkq2K4n4SARlfXaRqs5trirN38DRQAAyb8MY34Hv1Xp75xsCycnXJFIevJZEgxihChbLdisst2qHAf05BdRBACQ/Eu57f/vFV7x75N0ghl060PM7jIYzNC2XPEY1ZO/iSIAgORfigt/36zU921uDvdOefICzvgRm+4IaJvWtl3RnYDe/BKKAACSfzEyt1Lft9EL6hi/i9g8nljbeKX8KQzDScp/b6EIACD5T+DCX/7yipzzLx04VgXI5SQIJCayXNt8BYuAWykCAEj+Y5VtXb35y8r9XS+9Mzw04ckFKiDmSApIzCSnbV/7QEWKgN78bRQBACT/PSb/5T35r5X7nD/hBLNUENxAIkBiLhu0L5T7foAuAjp78g5FAADJf9Tk39mdn13W7X43OFkFvVUEfgQZIau0b5S18A7DvZWPuxQBACT/1678e/OXlC3xt208TAW4NhXothHsEWSXsq3gI8pXylkEdPbmM3ErAjIrqtulEUxK/j2DU5Th5GK18u/Jp8r1PROuPI8Ofggy9o6C2mfKuhPQnV8asyZmXfr3JrvBblm2Kne8Mpj+GDnHVhUMEuVZ9Yujk57sJKAjyIQ6CnZqHypXEbC8J39HvIqA3NVkOBiVXzwRHqwMZU2ckn9nb76xPKt+kVBBrI9AjiBFSZ/2pXL4aEdHuE9Xb/7OOO10LuvZ8jkyHex66787f3OsVv49+VklX/UvHTg24ckVBG4EKZ0UfKoMvQN0EbC8O//DGB0FPNfxVHgI2Q5Gbv335D86nBRjkfyV088s9TdMuUGDClZZAjaClEWy2sfKshPQk/9RfC4F5uaT8WAEXT25X8TEAbZ09eZnlPLbNTibj+CsH0EqdzdA+1wZjgPujsVsk5683/V4eCRZD3Zc/W+LQ/JXxj+9pKt+J6hXQek5AjOCVFSe075X+p2AwR/HYxdg8PtkPhg6++/Jt8Uh+S/vzn2lVN9sWke4X8qTV6tAtJVgjCBVka3aB7UvlsqvV6wI9+3sGVwWg3j4DJkP9mrrDScrY3jJ+pV/b+7CUn2zxvbccSr4rCYAI0gkZLX2yVIWAfrdvO1FwD29+RPIgLG/+T/4L5Yb+mBXT+7LpfpeCSeYrgKOIOgiSKREaN8s5cKos2dwud2xcfC7ZMCYs7x38Hs2J//O7tyXSvGdkm3hZBVkFhNoESTSslj7aul2RwfvsXfcee7nZMC43/63d6trsKs3N60U32iWK96sAssjBFcEMUIe0T5bkouBT4X7dfYM3mdpjFxHBox7AdCTf9LG5L+8J/fFkpz3Z4JTVEB5nqCKIEbJ89p3S1UEdHXn7rexHwpDgigAXrTMqPPKWb9QmvN+ebkKJHmCqWkiNqs/1+qVoO4gVxAn+GnKFZmREty2819Tf8+PXvl7dPc5R/5V/bW/802NlLz24VLEggeeDvdXi4qfWtcToDc8miwY7wJgwKbkv7w3d24JzvsPSrjyLgJo9DrBJd3gD0lP3qf0s0j9OVcl6GlN7UFNyst9INkWvL2cvqKbzzRlgnfqlWXK8U9POiKlfqb5umhIefK37BRFtI2w9mXl06UoArp6cg/YVADcu2rg3WTBeBcAtoz9Vb9H7pxiv8fsjP8mFTS6CZzVHQerEv1P1J9XqRXclxMZ8cmvetk3mOBPczvCA/WTtIQnzlQFyn+kXHm3+l2eVL/LIHqtqnRr3y5Wv3rLXMWZn1mzA7A6eAdZMN4FwMs2JP/OnoGzi/0WhVXk0NYxAbNy2/VPJT3hqmR5mV7JX3Lzptfb6GeFxlGu/+GEG1ykm9ekHPkb9ftL9F9RWat9vERFgB2t02kJHPsCwPTxvwNdq7acWfRlPy+oY3xv2SVQ8lDSkQsTrjjb1mQ/nqJAFT4npFz5DSVd6tu8gI2Uf7yw9vXSFAH5X5o+EyAMw0lkwTgXAGbfbh3o7N3y+aJX/m5wMZf9yiLbhs7GgysTnjzp0kXh/njcnu4ZDLxbFUeJ4YKgHxsqz+VA7fPF6qrj0fBAFYMeNHc0cP73eFzM6ezNpQ014GB5z5Yziv39k65oJiCWVP6h5A691T3n9n62F4uxzbZwsj4WGb5o+Htsq+THT80lKQK6878ycyBQvh0vi/0OwODpJiZ//XMXG1x1oiIIlkSeUcG0tcmRn8KjyodubpNyRVPheSJDqEoldxTbOfD+3vAgFZNWGHgEMB2vijm/eCI8uDAf2hzDlct7B6cW8zvrm9pJN3iA4FfUTPZnC7f0M+KTeFHlGXqtIuYoHazURy3YZDESPKBjQgmKgF8b1S+FC4BQ2AXoyf/IlOTf1TN4alGBc0l4yPAKisA3ftGX1K7X5/l4TXRoul2+Zbhp1SpsdIK9AlRM0LGh2MWUilErzdj+z92P50CB5d2D9QYYrejsGZxSzO85M9N3+HDDFoLeOC7yJTzxS91wp5Rz16FM9wY88TGlq5vVqnYTtjs+0bFBx4gSFAEPRX4QUJG7qGDfLkBvlJN/16rBop7u6EYyKjD+jkA3nmY8orWxPTgG7zAPvaWdcIOZDLEap6gYUWzTqY6nwkNUzHo4ssm/J78aD4ERLFs1eFpU36p29g7WFvO7DU3zE38iwI1hFaQb1Dji3ObmcF+8wg4KDa684NbhPgzY+Z5fB/yp2GmC9z4cvk7FrkeiWQAM1uAVsItdgGjNvtbJv1hj1b3bhwe6ENhGly1JT3Zwoc9uCrtgQ89e/4HN73En4K86dhRbBKg49mikkn93/od4Aux666o7fJMykg0RMdZsZ/fgvxSd/F25joA2qvhKbmSbP17MzIQH6OeESvdr8IHdyrpii4AHHgsPVQuZxyKyoPrfjt7wMDwARkVfDlHGMljt5H/PqsGiZnkPbfvr9+kEsl21Q014wffj3oo39oThpIQrzxseVoRfjNLjotjjAJ10VUx7vNoxdfmq/McxethzEdCTb6iiofZ39gx+pgRbnZz572qcriNaSPywi0LgX/GZ0e8EFH0xcKgI6K7Wm399xwtDhzHT1Zu/TBnO1gob6ov39OZPKG57s+9wbvu/RqSeQJds6z8Ky4bRaG4O9055wVeUvfwPPvPa1wHFPhFc/rvw8Co8EZSlGJYGcSwCenJfLjzBq4yhrul6fOC9xfy8upEH7/xHDj1RsrgUc9AhVoXAvgknmKVs5zl8aGSfgGKbBQ0NEBr8cYVi6oZi71FBzFnWnfugMqQ/ltlQXd1Ao5ifs/DumQ5/O7Y3/Vkyk3s/FgwTZfod4cFJV/xA7yDhT692DCy2bbCmszd/aWGUefli6n/fu7q4uwsABdp6w8ldvYPf1hdJSmykfyjFm9TCXHV6+2+XNamM+BxWC6WiwQneoezqR/jWq7MDStEVc3nvwLHLe3I/LfGEvxeUfBWrhZJzf294VGd3bp4+qy/SSH/b1Z37QnMY7l2Kn4upfkM3+5OenFvsZDOA0f0sODnlyV58bWiKYKm+6z3dgyd19gzep2LjliLi6t/UIu0b+ogBS4Wy7wjc0z1wljI6T78tHYNxDhQmZXUPfn/ZYwPvKW1QKjQ2YaQpF/ygEoThpKEeAswa0LGnlJ+2szc8WsXTr3f15H42xt3WPy/vyS8qtlMqQHFbWb8LD1/Wm3u/3s7v6s3PUIY5a+jP3Dn3PJb7wIoV5Wkrm3SCGTEPQmsTns/zHqg4wxMI7+F1QDCjXN/4nm75ts7u/Cf1LX69ra9jamdv7kL913SDIawQYkujF9QpB8zFtnWvK6/Xl7SwBKgmKU+er2zx7zEuAnI6FmEJABULOrkPFM6843kB6ckmR34KK4CoMNR7I2jXo6Pjev9GxyQsAaDM6Dfteus7jqv+lCfSXPKDqKKPo2K8G7CWfhsAZUQlv4OUo/XELrh48tmEF3wWC4Do+2j/Ucpm741pEdCjYxRWAFCOFYYr74pd9zFX3l1sC1KAihcCjkgNT5uMV6MgFaPQPkCpk78jL49ZMOkv5w1jgHJziTvwvjj2DdCxCu0DlIjGTHDKcF/72AweSS4dOBbNg/E7AW3hZLUqXhS3GRw6ZqF9gCLRs7iVQz0fp6Y+peg1DhCpHTw3uEjZtoiRHz+vYxeaByhi9aAc6ZH4TO4Tc9A6WLuT1+4fn3TkX2NUBDzCqx2AiRYArlwck0CxvsmRn0HjYDuFngFu8JMYFQGL0TrAeLcMnWB6TALEQ7wfhlgRhpNUEXBlXBoH6ViG0gHGvFWYOy4O54X6ydCli8L90TjEcofPkRcqPxiIQREgdExD4wB7QM/ZVg6zOgaTxFr1SgiNQ6yL/aEXPi/FoAhYrWMbGgfYDSlPXm15IBhMuUEDmgYYInHbwHuVXzxtfVMvFdvQNsBoyd8J6pWjbLV41b851T5wKpoGGMlwC2HbX/xs1TEObQPsRIOz+QjlIM/Z/C44mfE/hKYBds3MTHhAwpH3WF4EPKdjHdoG2HEF4MlOm4f5pDID70HLALunuTncV/nMjywf7tWJpgGG0WfiFjv808m24O1oGWDMRcDeSSdot3vIF/eAAPZqcAberRwia2elH/yRN/4AEyAMJ6U8eYPFRUBWxz4UDbF28oQnV1jq4Kv0xSaUHG3qWv21dWn/ydq0v0KL+u/3KcloqU/7N9a1iivrWrJfq0+LM6f8wP/QZxa++Dq+WuVIOqLF2j4gKvbxFBji69yeaLTUubuTbRsPQ8NGFADhBOQlJb2qOOhURcO1da3ZS+vni0+eQVOnspDwgu/bex9ANKJhiF/ybxNHKwfos9Cpn+CWr/UFwGiSV7KqvlUsqU+LhvpW/3hWeKXaCZALLS0C+nQsRMMQs9W/lbf+/9LY7r8R7ca2ANiV+Ep+U9eaba5rkZ/iixcRM2wdDsarAIjVlp4rz7PQkdfO9uTb0C4FwG6lxX9eiVefzp5f0/yPQ9DAOCgMERKepXNBzkPBYH8V37bxMD3+1rZxvsmlA8eiXQqAcUquLu3/qr7F/8aUBTwVHQvTOsJ9ko78LxtHgnNvCGKwjRe0Wea4LzHpiwKgBLJNyS/rWvwLaprDA9DM6Aw1CwoesK8ICNrQLtic/E+2bAb4gJ5mhmYpAEosG/VFwtr54uNoaNfMXhIeYuHU0G06RqJdsLFq37vwNt4iZ0158gI0SwFQ5jsDv69v9S+vae47HG2NZJYr3qzbbNvWP0THSrQLVmFfu9/gO2iVAqCCslkVA/OnXpn9J7S2w65ixv+Q8sVNtAkGiGylHr5OGfYGi5p3uGiVAqBKEtS1ikVcGtxhcdE+cKryy7xFRcAGHTPRLNhRpVvUxCPhiV/qS0holQKgypLXzwlr5/W/Dy3utVfCCWZZtcOoYiZaBfOT/9KBY/VlOVsm+83McBZLARAp2ark7inzB94V+1jjyhttumDM02KwwSmXW+KQorHdPx6NUgBEVAbqW/10nIcVJdvCySlH/saiImA5HgrGknKCeou25C5EoxQAURdVBPy9Pu3PiOsMAj1+26ZGYzqG4qVgHMPP/p6wxBFvRKMUAIbJ4zUt8sQ46jThyZOUz+ZsGS7Gs0Awb/XvyQssccCH9NYiGqUAMFC21bX4d8Tx6WDSFXOs2QWg3wiYRKFftyvXWOB8zzOqkwLAAvlHfVqcG7tFiCvvtKQIWKNjKt4KZlTfTjDDik5/jn862qQAsEVqW/ylZzS/fGhcdHvpneGhyo+fseMOUjADb4XoJ/+2cLIlTse5PwWAjfK3+tZsbYx2AT6tfHnQgnj0DEeREHkSrkhY0Ob3DzMzTGSjALBWttal/evjMnVQ+fOVVjQhU7EVj4XIMq0j3M+C4RyB7i+ONikAYiBP1aezH4hBXNon4cqHzW9BLp/VMRavhYhW2ubfvE048nI0SQEQI+mvTYuzbddzUyZ4px1Dg8QcvBYih94yN70Bh+7zH9cGKhQAsZatta3iCtttP+EGMy04CljP8SREjpQnkoY7lt/YHhyDJikA4ir1rWLZ1KvDg60uAlSRb35fAJHEcyE6qJWD8e/+PTkXRVIAIP4TU+fZWwjrIl8X+6b3BWCnEiK0tSbONtyhumm0QQGAvCIvTpmXrbFV57rYt+BFwNl4L0TDoVy50mBnyjPljwIAee10wdoWcY6NOte99ROufNzwImAl3gvVX/1nxCcNv1XbihYpAJBdymB9a/bLdh4F+Mfr4t/oXQAVe/FgqCopV95tsBM9zY1aCgBkt7KlPi0aLN25nG/0ZUAVe/FgqBpDb2vNbbPJORqQ4Mc2VbC+1beuP8bsJeEhhj9dHtQxGC+G6qz+PXmD0W/+gQKA5D4OEd+1bhfA8MFlOgbjxVBxZrnh65QB9ptaOSduy34QLQJJfbySbbHKAMJwkuEXAvt1LMaToaIYPvRnMRoECoAJjhVu9a3qmTE8MXAbQ4IAxrp15spuQx3m5Tm39x+JBoECYOKtg217HaCKgDtN7mOCJ0MFncX/sMEd/y5Dg0ABUHyfgLp52Tpb7KCxXb5VxQdh7osA/8N4M1Rq9b/YUEf5G+M0gQKgZLK5doE9iSflyas51gTYDXM7wgOVsfWZWSUHDWgQKABKOUDI/3vNfDueoiXb+o8y+GJzn47NeDSUefs/uNjUpj/NzeG+aBAoAEoua+rTdtyrSTqixdxjgOBiPBrKvf3/kJE3ZZ1gOtoDCoCyyS91j33T7eGSmze93tQdTh2b8WgoG43tueMMfS7zZ6b9AQVA2XsENNuxyAmuMLQA2KZjNF4NZXIM0Wpot6wvoT2gAKjE80D/VNNtYrjJ2YsMNwMYuf3/tIEO8Sfd7QvtAQVAReQfdS3yLewCVO+uE14NZdj+Fx83892/aER7QAFQ0ZkBD9cYfuFWNwsztS+AjtV4NpS2InbkQgOdYQPjfoECoCpyjem2kXLlEiMXPSpW49lQOsJwkjKsteY5Q3AFygMKgOqMEK5Nmz1uO7l04FgVR7YYWASs5dgTSucInjzBQCcQ9PwHCoAqSov//MnzN73e6NjnymWGtjw/Ae+GkpBw5bXmNcWQS9AcUABUvVOga/gxwKfNnBAor8W7oVTb/+sMc4CtDc7Au1EeUABE4Cig1a83fBfgEQOLgHUcA0DRNDnyMwae/f8MzQEFQGReBfz1rObwIGN3QJ1guom7ADp24+FQXPVr4O3/hCu/iOaAAiBS9wGuNtVGCgPQPLmR1wAQvwLAlU+Y9vQv2RZORnNAARApGaydb+77dLWoWGTgLsATeDhMfPv/dvkW43r/U/UCBUBULwT+ztQGQcmM/yETZwPoGI6Xw4RIuUGDaQafygy8B80BBUBEi4C0SBkbDz35WwNHBDfg5TDRba8fG3X278kVaA0oACIt6029EJhwglkG3of6MV4O46a5OdzXtLnYCTe4CM0BBUDEJe1/20RbmX5HeLCKM1nDioC+ZsPnMkAVaMwEp5jW+W/2kvAQNAcUAJGXPlM7BKoV9V3GDQdSsRxPh3GR8kSarS6gAEDKIbUtvpGXdZOOONe4ewAqluPpMD5Dd+Vqw27/T0NrQAFgjMiahfKtptnLpYvC/ZNusMmwImA1ng5jpsHZfIRhz/+yyTZzO40BBUA8Jdtu5jGAuN2011E6puPtMDYD98SZhhn4j9AaUACY1xyoZv5m42Z2JB3xeeNeA6iYjrfDmDDw/P88tAYUAEbOCVhkXAHQFk5Wcedl7gGAlSiDWWnS9v/MTHgAWgMKACOl/4zmlw81bpHkioxhuwAr8XbYI9M6wv2UsUhjVv+OvAetAQWA0YOCvm7eMYCcZlgBIHVsx+NhtzS2yxPNanUpmtAaUACYPS64uTnc2yS7mZnpO1zFn0Gj+gGo2I7Hw562/79pklE3OME70BpQABjeFyAtzjYwVj5k2C7AN/F42C0pV3aZY9DiT2gMKACsaA/8K/MKgOA7Zu2Wyi48HvZU1W4wqPnPdWgMKACskG1TfuB/yCTbaXLERw3bAdiAx8OoNLYHxxhV0bYPnIrWgALAmsZAtxhlPGE4ScWhv5t1DyA4Bq+HXW//e+Ick4b/6LacaA0oAKyRlz7eFk42yX5M6wqoYzxeD6Ns/wdXmNPZSq5AY0ABYJfUz/dPNypmeqLRrGOA4Aq8HkYxZtlhzvm/aEFjQAFgnWRMsp/G9txxRhUAKsbj9TDKDoBcY077X3EGGgMKAOukb1qzQQ1rhu4BvGRQEbAGr4fXMLcjPFAZxxZDjHirbsSB1oACwMbOgOIswxZO9xpUAGzRsR7PhxGkXPEJg86xnkRjQAFgrfxfowoAT/6HYd1TP4HnwwgSTjDLnHOs4FY0BhQA9g4Iqmk2Z8BXkyM/Y9T0VBXr8XzYeRvreoMMeDoaAwoAm48BzBnxrZ8jq7g0YFARcD2eDzsXAA+a85Y19wE0BhQAFs8GaM3ealj8XG1QAfAgng8jDdiTzxpivEFzc7gvGgMKAKtljVnxUyw16Cngs3g+vGq8beFkg14ArEZjQAFgv5y6ULzZoB0Ak6aobkka1nERymm8SweONad6FUvRGFAAxOEegH+BKXak55IY1RBIxXy8H4aM1wnqmWkNFABIpNoCt2bbTLGjxnb/jUY9BVQxH++HoQLADRqYAAgUAEjE5C9G7aQaNEpdx3y8HwokPDHPFMOdnfHfhMaAAoB7ABGMo780Z5iamIf3w/AOgLzTEMN9GW0BBQD3ACJZALhykTk7APJOvB+2G+7DZrz/l71oCygA4nQPQCwx5gjAk3PNGaYmH8b7YchwXbneEMNdhraAAiBW8muDFlLnGXQRcD3eD9t7AGw1ZAfgajQGFACxkn8YUwBk/I8YVABspRcA7KUv1ZljtGIOGgMKgHjJ1Cuz/2TGYmrjYSY9BeRCNeyVuC37QWMurmTE59AYUADES6bMy9YYs6PqypeNuQegYj8RIO4FgBd8liFAQAGARHYwUEt2tkEFwCpzngIGnyUCxJxUu/yCMdtWbeFBaAwoAOI2GVAsNqYA8GSnOU3V5BeIAHHfAXBFwhCDzaItoACIpfy3OQVAcKs5TwFFgggQ9wLACf7TEINdi7aAAiCWssGYAsARLcYUACr2EwFijjKEa2gCBBQASJSlpjk8wJB4+nWDXgJcQwSIewHgiaWGDK/4OdoCCoCYPgVskW8zZEd1OqPVwRhSrrzfDGOVP0RbQAEQVxEfM6IAcMUZBs0DuJ8IwBHASkN6Vy9CW0ABENeXAP5pRhQAGfFJg44AVhIBKAAeM+TN6vfRFlAAxHUokP8VE+ypsT04xqAC4DEiAAXAakOOAC5DW0ABENsdgLkm2NOc2/uPNKgAWE0EiH0BIJ4ywlgdkUJbQAEQ2x2AtAn2NHtJeIhBs1WeIgKwA/C0GXcAgploCygA4irZdiPi6dB0VVN2AJ4mAlAArDNjB0BeiLaAAiC2BUCXQTF1qyEFwDoiAAXABkNeAXwRbQEFQGwLgHsNiqmBIQXABiIABUCfEW9WHXEW2gIKgNjKfebE1GCTIQVAHxGAAkCY8QzQjHfAQAGAxL0AkC8YUgAIIgAFwBYTjLWpPahBW0ABQAFgQExdZ0gBsIUIQAFAAQCx44zmlw+tTft3klgNkRb/foNi6noKAOAIoKQyMBVtQUlW/S39J6mkspbESgFQppj6IkcAYIqxcgkQYsG0jnCfutZss0oogyRV4xoB/cScmCo2cwkQTCkAeAYI1jN1XnCMSv6PkkwpACoQU3kGCMYYqxEXVlKevABtwUTQg2RUEtlMIjW5ABDLDIqpNAICY4yVVsBgJVMWbDysLu3fRQK1YRhQ9lYTbK65OdyXVsBgUAFgxjCglCeSaAvGnPxb+k9WieNvJE9rOgG2GBFP28KDGAYEJu0AMA4YrKFGrcDqW7M/UEljC0nTqlcAXzfB/hqczUcwDhhMKgAeM6RabUZbsNtV//yBd6lk8RgJ08pLgF8xIp4uHTjWoALgMaIGBcBKQ3YAbkJbMBq1rf7FKlH0kywtLQDm+6cbEU89eYJBBcBKIkfMSbnyfkOeAd6FtuC1W/59h9em/f8iSdotNS3iEybYY8IVZ5hSAOjYTwSJ+w6AJ5YacgTwC7QFO1Kf7j9FJYdnSZAxKADmB+80ogBwgunG7ACo2E8U4QjgGkP6APSiLRha9Yf76lvhXPSLjWybenV4sCHx9OsGHQFcQzSJOapi/U9DjHUt2oK6eZuOVQnhcZJirOQ5cxZU4gemFAA69hNR4l4AuCJhiMFm0VbMk3+rP5OLfrGUB40pABx5szEFgIr9RJWYk2qXXzDFYGdm+g5HY3Hc8u87vC4tOkiEMZW0MOYFUMqVXcZcAlSxn+gS9x0AL/isMRVrxv8IGosXtensZ2tb/XUkwhi3AW7JzjbnCMCQxmo6nqrYT4SJewFwW/aDBm1ZnY3G4rLq1x39/DQX/ZC6edk6YwoAT240Jp6q2E+kiTmzM/6bzHm2QjvgWCT/+ZvfrQJ/N8kP0XJKqzjaBLvVR5QGvQAIdewn2sScZFs42ZjxlY68Do1ZvuXfKmbVtYosiQ8Zlj5jdlMz/kcMKgC26thPxAF9brXekM5VXWjLTk6ev+n1euY7CQ8ZOQMg+1tTbDjliXMMKgDWE3VgqHJ15cNMr4JqoYJ8rQr2/4+Eh7xWxM3GxFFHXm7OfSr5MJEHhipXV95piOH27xWGk9CYHXy8LZysgvwCJVtJdMiunwD60w3aSb3RoDkAdxKBYKhy9cQ8Uwy3KWNGT3DYw6o/3f9eFeB7SXLI7uTUeZvfY1AB8KA5TwDFPKIQDO8ABA3GVK6OOAuNmU1dq2hUwd0nwSF7kBdNsmsVn14wZwcgaCASwVAB4AT19K+GcnNa8+YjVPLvJLEhY5PsclNs26jn1IWFVFBPRIKhynXpwLEGXV65C40ZuOqfl63TQ11IasiYpSX7NXOOUQemmFQA6JhPVIKhAmCoF8AWM4w3eBKNmYO+6Fff6l/FRT9kvDJlXvY4Y2KoJ+caVABsoQcA7GzAzxpivDmM1wxq5/W/TwXyVSQzxOYRwIVjVFdkDOqo+izRCUYWAAbdYE25/ofRWMSTf6tIctEPmfj2v+8ZVQB4stegHYAHiVCwcwFwvTkFgGhCY9GkPt1/pL68RRJDiuoAmBbnmmLzMzPhAYWdSXMKgOuJVDCChBPMMsiA70Bj0WPKPH+KCt7rSWBIkSKnXh0ebIrdN2aCU0y6AKhjPdEKdj7D+oQxRuzIv6Kx6DCtOdxPBe1ruOiHlKb/v/8To2KnI79l1BNAFeuJWjCCuR3hgea8BJDbmu7I/hNaqz416f7317X4q0lcSKlET4Q07Pj0XpNeAOhYT+SCXRnyGnN2Acw5I7SVuhbRpAK2IGkhJZSBmua+w41xgjCcpOLRiwYVAGuIXLDrAsCTHQYdAyxEY1Va9Tf3H1XXmr2XZIWUYfzvPSb5wiXuwPuMagCkYjwRDEbZAQiuMMiYH0Fjlae+1T9Vyd9JVkhZCoCW7JdM8gfDLk/rRmpXEMVgl6Q8cY5BxjyYbNt4GFqrDPqiX23av1YF6W0kKqRM0vfp68w6n9Yvkoy6AKhiPNEMdklje3CMUcbcLr+A1iqw6k9nP6BW/b8jQSHl3f4XS4xyjKHz/w0mxUwd44losLuK1iCDDtrQWHmpbcnO1u+ySVBIuaWm1f+IUbHSEx8za/tfbiCiwe6PAVzZZZBBr0Vj5eGUdPYNKijfR2JCKvT2v8e8xVLwHbPe/8suIhvsaQfgmyYZtb6Fi9ZKvOpv9U/joh/C2/89LJYc+RvDdgC+SXSD3dLYLk807FnLZWitNJyxKNy/Lu1fz0U/pKKS9l+oaQ4PMGqh1LbxsMJFZKPO/+WJRDnYLdM6wv2UsUiD7gH8DK2VYNX/g+wHVTB+goSEVF6yzab5S8KVXzRs9S91bCfSwViOAVYaZNi5mRmDOodFkLqW7Ne46IdUq/Nffav/RuO2/12RMawAWEmkg7EZtyfSRhm3E8xAa+Nn6pXZf9KDV0hCSBU7/xn3kmd4l7TPsPf/aSIejG17yxNnGna79X60Ns5Vf6s4QwXgDSQhpIqSnzrPvHfppsXHwghg9TMT9WBMNDibj9AT9wwy8AG6Ao4NfdmqPu3fyEU/JAKSMfSI9A7DCoBtOqYT/WA8Rr7aqArXCaajtT0k/9bsP9el/SdJPEgEZLA+3f9e03zo0kXh/kk32GRYAbCa6Afjwrh7AJ68D62NTm1L9jIVdAMSDxKJd/8tvmPk8agrzjZt+5/zfxg3jZngFMMMfYDXAK9F37BWAfcBkg4SIZE1C+VbjVwYufJO0woAHcuJhDAumpvDfU276Zp0xRw0t8OqPy0+p5uskHCQiK3+F5roT7OXhIeoONNvWAHQp2M50RAmsN0lf2yYsa9Ca0MX/epaxSKSDRJBeenk+Zteb6JfJT3RaNztfxXDiYgwwe2uoME0g29yxEdjvuV/vAqyfyDRIJGUFtFkqm+p+PKYcef/KoaTyWBCNN0u32LYc0B9GfCmWCorDCep5H+57qxGokGimfz91c3N4d5GJv+M/yHTkr+O3TqGk8mgmKr3CcMKgI0zM2YNFil6y/8q/021Lf7PSDJIhGVbbbr/MwbHwRsNLACeIINBcYbvyIXmPXuRF8Rmyz8tzuSiH2LA6t8z1cf0gkLFlZeNKwBU7CaDQXHHAI78jIGV769t18unrwsPrG0Vi0kuiAHJ/3lTL/4NL4IuNDAGhjp2k8Gg6LNlZUzruAwYHWoX+B9WgfUpkgtixMCfdPZ8w49BHzWwAFinYzcJDIom4cprDdz++r82FmO1rf5cLvoh5ki2y+jY58mTTFz965hN5oLSVMCePMFAJ8jNcsWbbdHBKa3i6LoW/xckFMQg2aBHThse+zpNLAB0zCZzQSmPAdbSA7tKW/5pcbYKpi+SUBCjbv23is8bnfyXDhyr4sgWAwuAtWz/Q2mdwcDXAIWbu23hQaZ/e3r5IwZu/d9ifMxz5WIjV//c/odS09guPm7mVpi4xPRvX5/uP1IF1WdJKogh8oezms0uvBuczUeo+OGbGPN0rCZjQTkq4qcNdIj/TbaFk03/9jUt8kQVWHMkFyTi0l+T7n+/6f6WcoLvGbngUTGaTAVlKgBEq6G7AI02fP/hVr8kGSS6T/5asl8y3c8uvTM81MjGP0MTUVvJVFCmY4DcccbNBhi+FGPDLsBQESCWkWiQaIpYZIOPJbzg+4au/rfpGE2mgnIeAzxkonOkPJG04fuf0fzyoUz7QyIoD9ZYMHf+kps3vV7Fiz5DC4CHyFBQ3rMxN7jY0Hexz07rCPezQQdTFgRv1+1VSTpIROR/TG71O3L1L+YZmvz16N+LyVBQVuZ2hAeaWiGnXHNnke9MTYv4hAq8guSDVFn6bLj0p5lze/+RKk70G1oA9OnYTIaCShwDLDbUSdbZ5CT1aXGuCsBbSEJIlSSYMi9bY4s/JTy5wNTVv47JZCao0DGA/2FjHcULvmuTLoZnA5CMkErL1rqW7DRb/Gi2J9+m4oMwd/vf/zCZCSq5C9BtqLP0J9vE0TbpQgXjBSQkpLIjfrNfsyqeefKHBq/+u8lIUNntMlckzN0FEK5t+lBB+QYSE1IJqW0VV9i1oyk/bejz5uHJfyJBRoKKMssNX2fwhZmtiYz/EfuKgOwtJCikzCv/eVY5TRhOSrjycYNX//06FpORoPKVsydvMLZq9uQK6xSigll9q++SqJCydPlr9a+yLoaZ+qz5lf4m8gYyEVSFpkzwTmWEg8Y6kCPOtU0nzc3h3nUt/h0kLKTEssA2X5l+R3iwigPPGVwADOoYTCaCap6f3W2wA/1t9pLwECuLgFaxiKSFlGTlnxbfsTF2Kf+fb/TqX8VeMhBUlURGfNJkJ0o68jpbdVOXFt8jgSFFPvX7mo2+MfyUOW9y7NKxlwwEUaikVxrsSFtSrviErbpRq7cUzYKQCchAbat/oY0+Ma0j3MfgZ8zbZSWZB6KxC+CKsw13ptXNFgwyGY3aluwXdUAnqSFjlI216exnrV2weHKu4fFKP/07m8wD0SAMJymjXGO4U/27zSqqT8tP17f6fye5IXuQtVPmZa0dKTt8cdk3PFat0TGXxAPROVPzRNJwpxKN7cExNuvo1IXizSrAP06SQ3bZ4CftrzglnX2D1XHKDX5u+urfltHmYBEzM+EByjjXG72t5skV+ga9zXqqaQ4PqG3xl5LwkJE3/f0bayw+Bits/TvBDNOTv46xOtaScSB6DuaKOcY7mCf/Iw66qmvxv64C/yDJL/YiVPKfYbu9X+INvEvFp83mFwBiDpkGIsm0jnA/lUCfNdzJck2O+Gg8ioD+k/SZL0kwppL2/1j7g+wHYxCX9K3/RyxYnDyrYyyZBiKL0UOCXq2yn5rbER4YB31NWbDxMJUI7iIhxk2y7Wc1hwfFY2cyuNKCrX+G/oABztYWTlbG+owF1fZNcdKbKgKmq8TQT2K0Xl6qa8lOi4tdN7bLE41uV/6qPKNjKxkGol8E2HHZZlvK8U+Pk96mzB94V12reIQkaeswn+w99a3+G+Niz4WJpY78qw2rfx1TySxg0pnbGgsc74Wm2+VbYqW8MJxUl85eohLGJpKmNfKy3uGJ3ULEkz+0IvmrWKpjKpkFjCHlyQsscb5H43jxRvcMqG8Vy0ieRss2PR66prn/qNjFH1deakn80SN/LyCjgFHo9/TKeJ+wwgFduSSueqxNi7NrW/11JFPDpMVfXdMiT4yjzTY58jP6NY8lBcATtvcmAVurcCeot6cKD74SVz3q2+L1afH9ulaRJblGv49/fWt2Tly3jGdn/DeZ3pBsRNxRMZRMAsaijHi5Jc4oGtv94+OsS32BTCWXNhoIRVK2qFW/Z3sr3z3sOu5r+GTSnWU5GQTMLgCWDhyrDHnAEod8emam7/C467Q+nf2AKgZ+QtKNhGzVfRxq0v3vZ7Ehr7co+Q/o2EkGAfMd05ELLXLMB3mPu70QkJ9WCeg+knB1LvgpuVsXY1iivvEvGi2KMaGOmWgVrKDwHteVG6w5l3NFBq2OOBo4vjbt/1dhG5rEXAERnVN+4H8Iy9u+8h+Yakmzn+2yQcdMNAvWkHKDBpsq9JQTfA+tjuTUeZvfo1vMqiQVkKTLMLSnNdumiy0sbYfkn/E/lHSDTVbFFhUr0SxYxfCzwFUWOeq2pCMvRLOv5bTmzUfUtvpzVdL6C4m7aPkfPbmxppm7J69J/m3iaAuGj+0sq3j2B5Zu1QUnFxKnRRd1GjPBKWh2dFQhUF/XKn6sElmeZD6OG/2t2XvVtzsNC9o10+8ID7ZsQTG0qFAxEu2CzUVAm2VO+1LKy3ERaw8MPyGco5LbyuELbCT618pjdWn/36a2yLdhMbtb+YeTE07wU8viSKhjI9oFy51342E2NeoYlvU82Rk7NQvlW/URgSoIfkvS97vr0/5/1MwP3oll7JnCnBFPdtiX/FUMUbERDYP1JFx5noUOvHa2x8ptvNS1BO+obRVJfbNdJcPNMUj4+oLkf6uV/renzguOwQLGQRhO0i9wLIwdoY6JKBjisxPgyU4LHfkvje3xGbdajtXdlJb+k2tbsv9neHcgZ0HCz6vi5uG6luy8unnZuprm8AA0PeGYcZONyV/HQrQLMTsKEEcr4++z8BzvyTm39x+JhovnjEXh/nUt8lP1rf7lKpH+sHAjPvoJ/2/6Ap+Slvr5/ulTrw4PRpMliBeunG9l8tcxUMVCNAwxrOgt6971qvRwnlceTp6/6fX16f5T6tMipZLtNcOdCP9caIlb2UT/nJLHVaK/Ra3uv6Z3LqYsQOflSf7BFZbGiVDHQDQM8SQMJyU8ucJGx055sjfZFr857NVCHx/oi3TDxcG5da2iUcmVta3ZW3XL3Nq0v2K7qKT9qPpra3eSX7/6v/u/VJIZlgW1LdnL6tPZ8+ta+k/Sdxb42pUj5Ym0rclfxz4dA9EyxJYGZ+Ddyhmydlb3wR/Z3gOY2OJAFdE3WLvyVzFPxz4UDVT5lrUJ3nmCYIPDqhFgrBS6hjpBu8UxgXa/ADti6auA7bIucdvAe9EywO4Zfuf/Q5uTP7f+AXaiwdl8hHKO5yx2/A2N7QxyARiNuR3hgcpPllud/FWM07EObQPsRMoJ6pWDbLXX+YNNCW9gCpoGGMlXvewbUp78reXJf6uOcWgbYLQiwJNXWx4E8pz/AbyKPh5LOvKvlvu9fhl0NdoG2A3TOsL9lLOstj0Y6MYmPAGCuDM8IfSlGPj7ah3b0DjAHmhszx2nHEZYHxQ82aHPPdE4xHS370vKD4IYJH+hYxoaBxjrtqATTI9BYNDyKPMDIE4Unvm5olnZ/rY4+LiOZWgdYNzbg3JxTIqA5xKePAmNg+3MzPQdrhLiT2Pi11oWo3WAiRQAbeFk5UCPxCRQ5JOevAytg7X+nPE/FIfLfjvIIzqGoXmACTLLFW9WjvR8XIJGwpV3Tb+DCXJgFylPXqDs249R8n9exy40D1AEzc3hvsmMXBmjwFGYIXCJO/A+tA+mo2++W97Tf1dFfHjRzfK/0T5Ascnfk50XLhbhF64XYayKAFds5vIQmEwyk3t/TJ70jpDzVKyqT/vhBTf5d2EFAMUk/yXKmYZnsF+wOG5FwNBTwUtu3vR6LAKMSv6OSMXiKe9OomNU3XC8mpIW4YWL5R1YA8AEkv8FS151Ji26qr74Vhm/IsCVz6XaB07FMiDqzLm9/8iEI++JoY8WYpOOUTvGrFPVf7/oFpHBMgDGs/JfPDL5b5ep8/3wq7fFsgjQb6avn5kJD8BKIJKrfndgqrLR9XFM/jom6di0q5h16gI//MrNwsFCACaw8t9ZTl8owsb2WBYBhQuCTY78FNYCUUEfUSU94cbSH5XoWKRj0u5i1lRVBMy4NWjDWgB2k/y/vHj3jrRdPn+NCJNOTIsAV25JuHLRLDd8HZYD1STlyfPj9Ez3NaJikI5FY4lZp+ki4BZ5M1YDMIGV/85yzrUijG3gGZJ1KU+cgwVBpRnuz7E85v5XiEHjiVmnLRDhzFvpDggwoZX/znL+jbEvAsKUK7uabpdvwZqgAv669/AN/764+52OPROJWadf5YezbpOLsCYg+ReR/LeL3jmIezDSfQNUIfANWo9CuWjMBKcoW1uFr8lwvLuVO8vnVBHQ2OZfj1UByb8IRypIWt+yJSgNy9MJV56HhUGpSLYFb1d29SN8a0h0rKlL+0XHrc9fJcLEbfI6LAximvxl8cn/laYbfjj9FnYCdpBfJz3xMawNJp74w4OGx/ZK/GlIdIyZkvZLFrf0BcKG2+S1WBvEKvl/6abSJf8dO2/FtFHQaLJVFQFLuR8A4/XRlBs06Eum+NDIRj86xpQ6bp15jR8mHHk1lgck/2KLgPn6vS3BaicJdBOh2Rn/TVgh7MY/9055wVf0MRI+M1J0TJky3y9b3Dp76EXTVVghWJ78Rdmc6JXOW7pbYBvHAaMVAo3t/huxSHiFMJyUdOS0pCv+hI/sosufiiWnzvfLHrf0k8KEIxdikEDyL0URcBvBaxSRKuBfRyHAil9fGFX28Ht8YvQWv5VI/tvlizcWGpxRBIBdyb+hvTznZ3vqvDWLImD3hYArFyduG3gvlhof9DyJpCcuUbr/H3xgdNGxQ8eQSsUrPUjoleNLigCwJflvd6iLbpYVLQC2FwEcB4xh0JAn70s5QT1Way/Jtv6jkm5wpdL3P7D5PW/7VzL5a7loyWvaDFMEgB3Jf7v8602i4kUAdwLGJU8k3GDmpYvC/bFiO2hysv+sksnNPOeL1pn/jjJtkRht1gBFANiR/LfLF26oThHA64BxyQZ9KzmZyb0fizaPuR3hgSkv+KrS4aPY8vhu+1c6+Z99ndjTwCGKALAj+W+Xs67xK14E6Gc89AmYkDyi34XPXhIegoVHm0TG/0jKlUuSbrAJu53AO/8KJ3/dEjgxlqmmFAFgS/LXoo3+jKuqUASkBR0DJy5+0hVeygn+RT8dw+IjssV/u3yL8ru5Sj892GgxHf4quzM5VRUb+nL0OEYPUwSA+cl/u2jjr/RFm+1tg5kdULSsL7wg8ILP6udkeEBl0U84VTE2R+lgZeESJ/ZYVG//Urb3HetCZEbbBH5eigCwIfmPuHCTrnwRUM8UwVLK8wk3uKXRC+qmdYT74BHlSvryrSlPJFOu/JX65luwu9JM9atvrXz8uXBJET83RQDYkPzLNWBjPKJnehMISyov68lx+gKaTlh4yMTRo52b2oMa9T3nJ93gSWyrtKJ9vxoxR7dCL/rnpwgAG5L/iB4BVSoCzr1OhAkCYplEPKW+7bUJzz9N30zHa3aPbsqU9ESj+nbLlPRjP6UX7eva56uy4FhUwgUHRQDYkPy3y4VV2o7bPpazsZ3gWGYZUPKYbkOc8uT5cd8h0Ct85UMnpFz5DfVdltOgp/yifVz7ejVizHnXl2G3kSIAbEj+O57J1VWpCDh9oWB+QOVlnbKlDvXn13UnQt2tzkafmdYR7qef6CWcYPrQjohcoX5ngf4r29df+3g1Yss515XxqJEiAGxI/tvly4tl1YqAqTQMioLolfCDKU/ekHREqsmRn/qql32DIav6gxK3ZT+Y8MSZCUf+m74PMXx+P4heq9vgZ+r86sQU3fOk7EeMFAFgQ/J/pWXwourtBOihHBcs5nJgRPsQPKUS6gP61YH689uqSLhAX5S7xB14X7IteHs57b/B2XxEUyZ4p376qBP80Fm9aFXB/S71c/x2uHsieoraTX/ly/VVul/0uatF2OhU6HelCAAbkv8rt3SrWARsP7PjcqCRorfW16qk3Ku32gviyh+nXJHZURKucLTs+Nf0ccQrf8/QNv2a4Z4HfFcDZdqN1YshZyz0K3+viCIAbEj+2+WLN1TzToAfNjgyr5xqI8EUQQzrTZEJbpnVXp1z/9MWiHBWtS4VUwSADcm/msODCsm/XQb6+dosV7xZ98MnqCKIGbMrtM8W7mS48puVLgL0v2tWtV8UUQSADcm/Glt5w8nfT7pB7Q6Xuybr1rcEVwSJtCzWvjriYqYn51aqCND/joaoPCemCAAbkn8lLwYOJX+/v8mRn9nVd9HPuHi+hSDRu/ehfXPU1xmevGyWI7eVswg4/SoVO6L2jJgiAGxI/q8+ERRlPvMXfYmM+OTuvk9je+449bOsJugiSCRktfbJPcU1PTypXEXAGQv96Kz8KQKgiOS/t74xHWWHL0fHQJ38Z7WLl3SzlrF8J93YJeXJq9XPs5UAjCBVka3aB7UvjjW+JT1xSamLAD3WPOpdRFOO+D9kN9izg7jyGhOc/6ISjvAsJP/bxAspL/eB8X6vQvc6Vz5HMEaQispz2vcmEuP0REW1Wt9aiiJAJ/8Gx4xvlnJFExkORiXhioRJQWBoiqAoxYW/9XoIy0S/m24QE9UjEwSxTpSvaZ8raqHjicZii4DP6ZW/Y9S3y+vZE2Q6eA2FTmpDw1qMCgYX3yrDU+cXs+0v1zW2B8eU4hum3KBB/UxZgjSClEWy2sdKFfP0yOqJFgFnXqOTv5HdQp+Zfkd4MBkPdkpe8lcmD/k4bZxOPJz8n5ntybeV9Ahl6cCxwx3kCNgIUiIp+JTyrZIfeTrBDBUHtoynCDjnWtM7hIpWMh7s4ATywjiN+Sxs+9/m/yXZJo4u83FKH8EbQYqSPu1LZV38eMFXxloE6M6kFnzTgVIvfMDoi3/BH6xYJSg59zoxlgt/T1ViupwuMLgbgCATP+svZ5G+8yKooV0O7q4I+NJNVg0Iu57MBzr511o3AGSUhkFDK3/xu2IvEI1/N0Cex0AZBBmzrNc+U/FjUE9+aVdFgH5tpF8dWfaN+/XoajJgzIn6m/9iegXs+ExwaOUvu5NtGw+rSqGl/r2q2GpTP9s2AjyC7FK2FXykSj46XAScv2MRoC8YX3yLnaPBE478MhkwxhQ6/rlis60BpfBCYMEryf+R2UvCQyKw43Ky+tlWEewRZISs0r4RiQvR7fILs9plXt/0n9kmrP3mKVfeTRaM8+rfkyfZHlj0C4GvtvsrorTdVei26ASz1M+3gcCPxFw2aF/QPhGti9HiXPWz5Sz/9s+TBeN8/u8F37U9wKgq9/5LF4X7R/H7X3pneKgqwhbEINAgyM6S07avfSC6x6PibNt9sykTvJNMGNsCQCy1PMgs23k0aCT1sHTgWPWzLicpIDGR5eV401+eXVJxpokN0sa8QGofOJVMGNcCwJUPWts4xJV3TesI9zFJH41eUJd0gydJEIidEjypbdy4o1JXnKF+/sDOHdLSdVYE8wqAP9sZaIQXtTPF8dwPSHnyAvV7rCFhIJbIGm3Tpvrk0E6Af5r6PaSFuvk6mTC+BcBfrDNoR968VxhOMl03evdCtynVvbtJIIih8oy2YdN24kZDb5fbVgSkHPktMmF8C4DfWxZwrOtupe8wFNoKe/JZEgpiSAe/Zws2a8D9m3EXAUPjv4VFC6avkQnjWwA8alHgmW+zrtQqar+kK+bQURCJcgc/baPaVu2Om4Xuqb4dd6WCi8iEcS0AHPlfdkwKC74fF53NzIQHJB2R4o4AEqUzfm2T2jbj4ocpJ/iXpAWjvxvb5Ylkwpiiz38sCD7/HkvlheGk4XfKK0lASJVkpbZBG+7cTHAn4GTDi4CtMzN9h5MJY8rwzVZj+4anXHkpWlSFnCs+odt6qm8ySFJCyiyD2ta0zeF5r3RT7TdUl0+gwTgfARQG1Bj5vnVryhNJNDgS3dUr5ckbbNiaRCInWW1bdI7bVQEuP510g01cmgbzigDz5tVvSbnBxWhudPTQI10gqW/VTeJCipRubUtRGKQV8Th6gvpWfZz/g1lbWK78oknbj+rn/Ve0Ng79ZvyPqO+22LTghFRVtK0s1raDB43H18QnVSGw0RAd/xmNwV56UI4yhnUGGOyAntCFxibG3I7wQL1zor7jQyQ4ZBR5SNuIthU8ZmI0touPq+/4cvR7NYhGtAXDZ1hBQ8QNVup+3GiqRNuVmdz7VTHVQpdBZKhbn7IFZRN4RmlocsRH1Xd9Kco6j+qEVKgChbazrvhTRI3V19230FIZVyyOXKi+81qSYWxkrda51j0eUK5Flf9h9Z1fjGT7X0+cg4ZgZCLIBKfoC3YRM9Z+/XOhnUoVA/LEhCuvNeRICBmfrNO65eJXJf3JP159939Ea/qfvBvNwK63hr3gu5G6iOTJE9BKlWzBDU5OeHIB44nNHr87rMOTsehqHQdk/1np4oXIHPe0bTwMrcAu0eM6VbB4IAKG+mLSEx9DIxEJYrfLtyScYJYqyDqSrthMYo3sGOzNWkdaV1pnWG5EjgO83AeUfjZU2T5e4p4H7BF9AzjhiV9W0VA36KoZTUS2SNx36LhItCpdrSbpVl1Wa11onWjdYKER3VHTF29d+fcq7QRt4ugHxowe6pFyg59XwVifTtw28F40YJKt9B2ecsRZehpjypG/sW1eetRewwx/4/n6m9PH3Swa24NjlO7+UmGb+Qe7qTBuCi8Dhp6Kba3Q5ZRfzbm9/0i+vPF2s5++u6H0+Q0lXRE6/zRRXtDfUH9L/U1tH7Mbi52Atv6j1Ir8Z5Xq4tjgBO/gq8OE0U/wVPB5toxGKtQ/f25cJ4rFZeWjnx4pW/qe0veypCueIrm/5vxef5Nl+hvpb6W/GZZjKSrW6ZhXxiFCOX0sRMEIJUE3jSisQkr7rnUw5YoMl5Xiib5rot+hDzehur5w76S8hWZEOrDJZ4fv2Fyvf3f9Dei8F09mueLNSU+4Qwm7NEPS9GyXS9yB9/F1ofSFwJ3hoUlHpIqcQf83/TRptiffxheFnSm8RFk6cKzeeSoUB45oUcXnncpuHlGy3oAkr3/GRwo/c+FnDxoKu2jqd9K/GxqG1+6QybcOH7dOtBnX84UpoNzyh0qRbAvennSCGcPjZx8aNt6db7m+pP733qFtX/l1Oo9BKdDFY2N77rim9qBG2df52g6TbnClsrGr9K6SfsqqiswVWobtb+0I2dXAlqG/NuL/p//e7f8c/c8c+mfLqwr/riHbP1//DPpnoaCFUqAHMCUcebmysx8p6dELptfYqSN/p1f6KUd+S9nmSfq+Fl8OAAAAAAAAAAAAAAAAAAAAAAAAAAAAAAAAAAAAAAAAAAAAAAAAAAAAAAAAAAAAAAAAAAAAAAAAAAAAAAAAAAAAAAAAAAAAAAAAAAAAAAAAAAAAAAAAAAAAAAAAAAAAAAAAAAAAAAAAAAAAAAAAAAAAAAAAAAAAAAAAAAAAAAAAAAAAAAAAAAAAAAAAAAAAAAAAAAAAAAAAAAAAAAAAAAAAAAAAAAAAAAAAAAAAAAAAAAAAAAAAAAAAAAAAAAAAAAAAAAAAAAAAAAAAAAAAAAAAAAAAAAAAAAAAAAAAAAAAAAAAAAAAAAAAAAAAAAAAAAAAAAAAAAAAAAAAAAAAAKC6/H/YYBsIH2aOFQAAAABJRU5ErkJggg==;" parent="vwwunB69SC0WPqoDZCOm-13" vertex="1">
          <mxGeometry x="31.000000000000018" width="94.55" height="94.55" as="geometry" />
        </mxCell>
        <mxCell id="vwwunB69SC0WPqoDZCOm-20" value="" style="endArrow=classic;html=1;rounded=0;" edge="1" parent="vwwunB69SC0WPqoDZCOm-13">
          <mxGeometry width="50" height="50" relative="1" as="geometry">
            <mxPoint x="153.26999999999998" y="63.00000000000006" as="sourcePoint" />
            <mxPoint x="223.26999999999998" y="63.00000000000006" as="targetPoint" />
          </mxGeometry>
        </mxCell>
        <mxCell id="vwwunB69SC0WPqoDZCOm-23" value="" style="whiteSpace=wrap;html=1;aspect=fixed;fillColor=none;dashed=1;" vertex="1" parent="vwwunB69SC0WPqoDZCOm-13">
          <mxGeometry x="-175" y="-55.99999999999994" width="563" height="563" as="geometry" />
        </mxCell>
        <mxCell id="vwwunB69SC0WPqoDZCOm-15" value="" style="edgeStyle=elbowEdgeStyle;elbow=horizontal;endArrow=classic;html=1;curved=0;rounded=0;endSize=8;startSize=8;exitX=0.5;exitY=0;exitDx=0;exitDy=0;" edge="1" parent="1" source="vwwunB69SC0WPqoDZCOm-2">
          <mxGeometry width="50" height="50" relative="1" as="geometry">
            <mxPoint x="193" y="139" as="sourcePoint" />
            <mxPoint x="344" y="11" as="targetPoint" />
            <Array as="points">
              <mxPoint x="214" y="85" />
            </Array>
          </mxGeometry>
        </mxCell>
        <mxCell id="vwwunB69SC0WPqoDZCOm-16" value="" style="edgeStyle=elbowEdgeStyle;elbow=horizontal;endArrow=classic;html=1;curved=0;rounded=0;endSize=8;startSize=8;" edge="1" parent="1">
          <mxGeometry width="50" height="50" relative="1" as="geometry">
            <mxPoint x="216" y="253" as="sourcePoint" />
            <mxPoint x="344" y="363" as="targetPoint" />
            <Array as="points">
              <mxPoint x="215" y="298" />
            </Array>
          </mxGeometry>
        </mxCell>
        <mxCell id="vwwunB69SC0WPqoDZCOm-19" value="" style="group" vertex="1" connectable="0" parent="1">
          <mxGeometry x="353" y="306" width="87" height="111" as="geometry" />
        </mxCell>
        <mxCell id="vwwunB69SC0WPqoDZCOm-17" value="" style="shape=image;verticalLabelPosition=bottom;labelBackgroundColor=default;verticalAlign=top;aspect=fixed;imageAspect=0;image=data:image/png,iVBORw0KGgoAAAANSUhEUgAAAgAAAAIACAMAAADDpiTIAAABL1BMVEUAAACApuaGpeaFo+eFo+eFpOaFpOaFpOWFpOZchd5giN9hiN5jieBmjeBpj+FtkuFrlN2HpeaFpOaGpOZiit9qj+FvluGJneuFpOeFpOZiit9qkeFwj+CHpeGFpeeFpOZfiN5pj+Jsk+CFpeeFpOZfiN9skeKHpemFpOZji+BtluOGpOeFpOZeh99rkuL///+A//+Zmf+FpOZnjeCAmeaEo+Zki+CGo+ZnjuCDqOluleCFo+Zji9+Go+VtkeCFo+Zfh9+GpeZpkOGFo+diid+GqueFpOZdhd5zmd+Eo+ZskeKGpOdqkOGFpeZii+CFo+YzZ9b///+An99zjN6Eo+VpjeGFpOZmjOCAquqEo+aGpOZrj+FvkN6Fo+Zuk+OGpeaGpOaFpOZgiN9mjeBrkOHZg6tnAAAAZXRSTlMAFFJ9p8zf5v///fv14b2KJjOM0vfLXA1z1fiyGRF/7f6/IWDr/ZwixPE/VPD+jAECBaXfCrXqpN8jQcPxYZ3q/Y3M0fcV/v8oU4t+vsv0+P//EB+LyrTpDHLUsRcyWnym5PzgvFZnHcgAAAThSURBVHgB7N1T22RXEIDR2ntsT2zbtp3LOD8udm5j2xnbtm3PZ8Q5tdZ1q57nPdXuDgAAAAAAAAAAAAAAAAAAAAAAAAAAAAAAAAAAAAAAAAAAAAAAAAAAAKCdEp0oR0TDNX/Aw9b3av5RpWyJHErkMKSUlT2c/4RS1lmBDTSqlMXdz39aKSvcBzbUCaXM7Wb+cw5HIoCGOrXM7Gr+C8p8j4Ib7swyNVqo0cIl/eYHDTe/z+WdHABXLNrqeXAKQ0/5vYMNcFWfrZECm/tc2z6Aq/pOjSSYWq9tG8AV/SdFGkzqe2WbABZNiESYsKR1AJdsjVTYfHnLAG4qkQz7bj4ewBV1diTD7HrlsQCG/xLp8MvwowGcViMh6tlHAig/REL8sO9wACeUSIl9px4KoKyIlFix73AAkRSHAhi1LpJi3fiocWWkxaVRo0Za1Kj39Ym06PNg7ftlpMWXtdZIjFqXRWIsq6dEYpxSP4jE+KSeHolxcr0kEuPsMtAPJKRWo4EQAAJAAAgAASAABIAAEAACQAAIAAEgAMqgyO0BG+DPQwAIAAEgAASAABAAAkAACAABIAAEgAAQAAJAAAgAASAABIAAEAACQAAIAAEgAASAABAAAkAACAABIAAEgAAQAAJAAAgAASAABIAAEAACQAAIAAEgAASAABAAAkAACAABIAAEgAAoAyO3YgP89yEABIAAEAACQAAIAAEgAASAABAAAkAACAABIAAEgAAQAAJAAAgAASAABIAAEAACQAD0jV56KP7LeN8GQAAIAAEgAASAABAAAkAACAABIAAEgAD4PwSAABAAAkAACAABIAAEgAAQAAJAAAgAASAABIAAEAACQAAIAAEgAASAABAAAkAACAABIADKwMit2AD/PASAABAAAkAACAABIAAEgAAQAAJAAAgAASAABIAAEAACQAAIAAEgAASAABAAAkAACAABIAAEgAAQAAJAAAgAASAABIAAEAACQAAIgL7/td/X3xfYAAgAASAABIAAEAACQAAIAAEgAASAABAAf+/nAXgwuvb+v31+GwABIAAEgAAQAAJAAAgAASAABIAAEAACQAAIAAEgAASAABCAABAAAkAACAABIAAEgADw+wDE+/+/89sACAABIAAEgAAQAAJAAAgAASAABIAAEAB9G/f//tgACAABIAAEgAAQAAJAAAgAASAABIAAEAD1gSCx2+uUILG5dWGQ2NLcdwHcU5cEiS2pJwWJnVT3BontrbtvD9K6fW/9aE+Q1p73a/wWpDUhauwL0ipRY92oIKlRK6OGFZBXiUMBnBCkdMLhAFbsC1Iqiw8FENfeECR0w9VxOIB3FwcJLX3nSAAx9JognWsGx9EAJuw9N0jm3L2/HwsgvtsXJFO+jeMBxJRHg1QenRgtA4hZVwSJXDErWgcwYefjQRqP7/69TQDxmx2QxxVzfo62AcRv2x8NUnh0+89xVIkWLimzI5sS2ZxbJnb21bApu64JGu6aPRO7OgDOOfUHG6DBblg6s+svh84ZM/6EoKFOOHHMzO4PgKdKedcGaKBRd5WXezj/89vWfSOARrll1KAXezV/Kc+XV8qzrwngf+7pN8qT5a2yPnoDAAAAAAAAAAAAAAAAAAAAAAAAAAAAAAAAAAAAAAAAAAAAAAAAAACA/RvZYBQAAEfNhrStTA07AAAAAElFTkSuQmCC;" vertex="1" parent="vwwunB69SC0WPqoDZCOm-19">
          <mxGeometry width="87" height="87" as="geometry" />
        </mxCell>
        <mxCell id="vwwunB69SC0WPqoDZCOm-18" value="&lt;div&gt;Budgets&lt;/div&gt;" style="text;html=1;align=center;verticalAlign=middle;resizable=0;points=[];autosize=1;strokeColor=none;fillColor=none;fontSize=16;" vertex="1" parent="vwwunB69SC0WPqoDZCOm-19">
          <mxGeometry x="5" y="80" width="77" height="31" as="geometry" />
        </mxCell>
        <mxCell id="vwwunB69SC0WPqoDZCOm-21" value="" style="endArrow=classic;html=1;rounded=0;entryX=0;entryY=0.5;entryDx=0;entryDy=0;" edge="1" parent="1">
          <mxGeometry width="50" height="50" relative="1" as="geometry">
            <mxPoint x="277" y="184.04" as="sourcePoint" />
            <mxPoint x="341" y="184.07999999999998" as="targetPoint" />
          </mxGeometry>
        </mxCell>
        <mxCell id="vwwunB69SC0WPqoDZCOm-24" value="&lt;font style=&quot;font-size: 22px;&quot;&gt;&lt;b&gt;Sandbox Environment&lt;/b&gt;&lt;/font&gt;" style="text;html=1;align=center;verticalAlign=middle;whiteSpace=wrap;rounded=0;" vertex="1" parent="1">
          <mxGeometry x="277" y="-94" width="269" height="30" as="geometry" />
        </mxCell>
        <mxCell id="vwwunB69SC0WPqoDZCOm-25" value="&lt;font style=&quot;font-size: 22px;&quot;&gt;&lt;b&gt;GCP Account&lt;/b&gt;&lt;/font&gt;" style="text;html=1;align=center;verticalAlign=middle;whiteSpace=wrap;rounded=0;" vertex="1" parent="1">
          <mxGeometry x="-183" y="-88" width="269" height="30" as="geometry" />
        </mxCell>
        <mxCell id="vwwunB69SC0WPqoDZCOm-26" value="" style="endArrow=classic;html=1;rounded=0;" edge="1" parent="1">
          <mxGeometry width="50" height="50" relative="1" as="geometry">
            <mxPoint x="101" y="184.07999999999998" as="sourcePoint" />
            <mxPoint x="148" y="184" as="targetPoint" />
          </mxGeometry>
        </mxCell>
      </root>
    </mxGraphModel>
  </diagram>
</mxfile>
